<svg xmlns="http://www.w3.org/2000/svg" width="19.099" height="19" viewBox="0 0 19.099 19">
  <path id="interface" d="M19.1,7.026h0V3.958a2.408,2.408,0,0,0-2.375-2.375H15.24V.891a.891.891,0,0,0-1.781,0v.693H5.542V.891A.757.757,0,0,0,4.75,0a.887.887,0,0,0-.891.891v.693H2.375A2.408,2.408,0,0,0,0,3.958V7.026H0v9.6A2.408,2.408,0,0,0,2.375,19h14.25A2.408,2.408,0,0,0,19,16.625l.1-9.6ZM1.781,7.917H17.417v8.807a.676.676,0,0,1-.693.693H2.375a.676.676,0,0,1-.693-.693V7.917Zm.594-4.651H3.859V4.354a.887.887,0,0,0,.891.891h0a.887.887,0,0,0,.891-.891V3.266h7.917V4.354a.891.891,0,1,0,1.781,0V3.266h1.484a.676.676,0,0,1,.693.693V6.135H1.781V3.958A.662.662,0,0,1,2.375,3.266Z"/>
</svg>
