<svg xmlns="http://www.w3.org/2000/svg" width="25.3" height="21.2" viewBox="0 0 25.3 21.2">
  <g id="&#x411;&#x435;&#x437;&#x44B;&#x43C;&#x44F;&#x43D;&#x43D;&#x44B;&#x439;-1" transform="translate(-293.5 -385.2)">
    <path id="Path_10778" data-name="Path 10778" d="M318.6,389.4a1.234,1.234,0,0,0-.8-.4H300l-.8-2.9a.961.961,0,0,0-.9-.7l-3.8-.2a1,1,0,0,0,0,2l3.1.1.8,2.8v.1l2.5,8.9.1.4c0,.1.1.1.1.2v.1l.1.1.1.1a.1.1,0,0,1,.1.1l.1.1c.1,0,.2.1.3.1h13.4a1.087,1.087,0,0,0,1-.7l2.6-9.3A1.487,1.487,0,0,0,318.6,389.4Zm-4.1,8.9H302.6l-2-7.3h15.9Z"/>
    <path id="Path_10779" data-name="Path 10779" d="M304.2,400.8a2.8,2.8,0,0,0-2.8,2.8,2.8,2.8,0,0,0,5.6,0A2.8,2.8,0,0,0,304.2,400.8Zm0,3.5a.789.789,0,0,1-.8-.8.736.736,0,0,1,.8-.8.8.8,0,0,1,0,1.6Z"/>
    <path id="Path_10780" data-name="Path 10780" d="M312.5,400.8a2.8,2.8,0,0,0-2.8,2.8,2.8,2.8,0,0,0,5.6,0A2.8,2.8,0,0,0,312.5,400.8Zm0,3.5a.789.789,0,0,1-.8-.8.736.736,0,0,1,.8-.8.8.8,0,1,1,0,1.6Z"/>
  </g>
</svg>
