<svg xmlns="http://www.w3.org/2000/svg" width="21.864" height="24" viewBox="0 0 21.864 24">
  <g id="Group_3332" data-name="Group 3332" transform="translate(-651.91 -690.206)">
    <g id="Group_3325" data-name="Group 3325" transform="translate(651.91 693.76)">
      <path id="Path_1787" data-name="Path 1787" d="M672.813,695.826H652.871a.961.961,0,0,1,0-1.922h19.942a.961.961,0,1,1,0,1.922Z" transform="translate(-651.91 -693.904)"/>
    </g>
    <g id="Group_3326" data-name="Group 3326" transform="translate(658.48 690.206)">
      <path id="Path_1788" data-name="Path 1788" d="M665.587,695.151a2.529,2.529,0,0,0-4.956,0l-1.885-.383a4.452,4.452,0,0,1,8.723,0l-1.883.384Z" transform="translate(-658.746 -691.206)"/>
    </g>
    <g id="Group_3327" data-name="Group 3327" transform="translate(653.455 694.664)">
      <path id="Path_1789" data-name="Path 1789" d="M656.424,714.387a1.951,1.951,0,0,1-1.911-1.864l-.995-16.658a.962.962,0,0,1,.9-1.017.942.942,0,0,1,1.016.9l.995,16.658,12.952.057.987-16.714a.961.961,0,1,1,1.918.114l-.995,16.658a1.952,1.952,0,0,1-1.909,1.864H656.424Z" transform="translate(-653.517 -694.845)"/>
    </g>
    <g id="Group_3330" data-name="Group 3330" transform="translate(658.557 697.303)">
      <g id="Group_3328" data-name="Group 3328" transform="translate(0 0)">
        <path id="Path_1790" data-name="Path 1790" d="M659.426,710.966a.959.959,0,0,1-.958-.907l-.64-11.452a.961.961,0,1,1,1.918-.108l.64,11.453a.961.961,0,0,1-.906,1.013Z" transform="translate(-657.826 -697.591)"/>
      </g>
      <g id="Group_3329" data-name="Group 3329" transform="translate(6.006)">
        <path id="Path_1791" data-name="Path 1791" d="M667.038,710.966h-.055a.96.96,0,0,1-.905-1.013l.64-11.453a.961.961,0,1,1,1.918.108L668,710.059a.961.961,0,0,1-.958.907Z" transform="translate(-666.076 -697.59)"/>
      </g>
    </g>
  </g>
</svg>
