<svg xmlns="http://www.w3.org/2000/svg" width="13.192" height="19" viewBox="0 0 13.192 19">
  <path id="social-media" d="M10.829,4.922a.939.939,0,0,0-1.181-.3,1,1,0,0,0-.492.788.882.882,0,0,1-.886.886.862.862,0,0,1-.788-.886V.886A.7.7,0,0,0,7.187.3.6.6,0,0,0,6.6,0h0a.851.851,0,0,0-.591.3A22.49,22.49,0,0,0,3.052,4.036,14.486,14.486,0,0,0,.984,7.876,11.68,11.68,0,0,0,0,12.4a6.6,6.6,0,0,0,13.192,0A14.59,14.59,0,0,0,10.829,4.922ZM1.772,12.4c0-2.756,1.477-5.513,2.756-7.383L5.71,3.249V5.415a2.565,2.565,0,0,0,2.658,2.56h0a2.83,2.83,0,0,0,1.772-.689A13.208,13.208,0,0,1,11.518,12.4a4.873,4.873,0,0,1-9.746,0Z"/>
</svg>
