<svg xmlns="http://www.w3.org/2000/svg" width="23" height="16.172" viewBox="0 0 23 16.172">
  <path id="Path_10758" data-name="Path 10758" d="M21920.686,21776.17h-14.371a.891.891,0,0,1-.859-.633l-3.416-11.23a.9.9,0,0,1,.273-.947.923.923,0,0,1,.59-.217.9.9,0,0,1,.391.09l4.914,2.395,4.615-5.316a.887.887,0,0,1,.678-.312.924.924,0,0,1,.682.313l4.611,5.316,4.914-2.395a.9.9,0,0,1,.391-.09.922.922,0,0,1,.588.217.9.9,0,0,1,.275.947l-3.416,11.23A.884.884,0,0,1,21920.686,21776.17Zm-16.324-10.414,2.617,8.619h13.041l2.625-8.621-3.686,1.793a.925.925,0,0,1-.395.09.9.9,0,0,1-.68-.311l-4.385-5.057-4.385,5.057a.9.9,0,0,1-1.074.221Z" transform="translate(-21902 -21759.998)"/>
</svg>
