<svg xmlns="http://www.w3.org/2000/svg" width="17.47" height="19" viewBox="0 0 17.47 19">
  <path id="Path_10751" data-name="Path 10751" d="M16.989,9.952a1.621,1.621,0,0,0-1.307-.6H14.677V1.709A1.611,1.611,0,0,0,13.069,0H4.423A1.762,1.762,0,0,0,2.714,1.709v7.64H1.709a1.665,1.665,0,0,0-1.206.5A1.665,1.665,0,0,0,0,11.058a1.77,1.77,0,0,0,.6,1.307L7.64,18.6a1.512,1.512,0,0,0,1.106.4,1.512,1.512,0,0,0,1.106-.4l7.037-6.233A1.646,1.646,0,0,0,16.989,9.952Zm-2.413,1.206h.8L8.746,17.09,2.111,11.259h.8A1.762,1.762,0,0,0,4.624,9.55V1.91h8.243V9.55A1.675,1.675,0,0,0,14.577,11.159Z"/>
</svg>
