<svg xmlns="http://www.w3.org/2000/svg" width="26.407" height="24" viewBox="0 0 26.407 24">
  <g id="Group_3324" data-name="Group 3324" transform="translate(-1385.576 -1558.032)">
    <g id="Group_3322" data-name="Group 3322" transform="translate(1385.576 1558.032)">
      <path id="Path_1785" data-name="Path 1785" d="M1407.573,1570.469a4.362,4.362,0,0,0-5.862,0,4.361,4.361,0,0,0-5.861,0,4.361,4.361,0,0,0-5.861,0,4.416,4.416,0,0,1-4.413-4.411,1.046,1.046,0,0,1,.069-.371l2.727-7a1.024,1.024,0,0,1,.953-.651h18.4a1.023,1.023,0,0,1,.928.593l3.236,7a1.022,1.022,0,0,1,.094.429,4.415,4.415,0,0,1-4.41,4.411Zm-2.932-3.76a1.024,1.024,0,0,1,.887.513,2.337,2.337,0,0,0,2.044,1.2,2.369,2.369,0,0,0,2.357-2.161l-2.859-6.187h-17.047l-2.4,6.158a2.373,2.373,0,0,0,2.362,2.19,2.334,2.334,0,0,0,2.042-1.2,1.065,1.065,0,0,1,1.775,0,2.338,2.338,0,0,0,4.087,0,1.065,1.065,0,0,1,1.775,0,2.338,2.338,0,0,0,4.087,0,1.027,1.027,0,0,1,.888-.513Z" transform="translate(-1385.576 -1558.032)"/>
    </g>
    <g id="Group_3323" data-name="Group 3323" transform="translate(1388.389 1568.745)">
      <path id="Path_1786" data-name="Path 1786" d="M1408.089,1581.8H1389.35a1.021,1.021,0,0,1-1.022-1.022v-11.243a1.022,1.022,0,0,1,2.044,0v10.221h16.694v-10.221a1.022,1.022,0,1,1,2.044,0v11.243a1.021,1.021,0,0,1-1.022,1.022Z" transform="translate(-1388.328 -1568.512)"/>
    </g>
  </g>
</svg>
