<svg xmlns="http://www.w3.org/2000/svg" width="23.998" height="24" viewBox="0 0 23.998 24">
  <g id="Group_3321" data-name="Group 3321" transform="translate(-957.802 -1310.591)">
    <path id="Path_1784" data-name="Path 1784" d="M976.735,1334.591a18.85,18.85,0,0,1-13.049-5.811l-.074-.079h0a18.719,18.719,0,0,1-5.807-13.39l.008-.345.214-.27a12.511,12.511,0,0,1,5.38-3.987,1.867,1.867,0,0,1,.674-.118c.557,0,1.809.283,2.129,1.16.564,1.566,1.276,3.61,1.794,5.565a2.468,2.468,0,0,1-.764,2.357l-1.827,1.158a1.377,1.377,0,0,0,.247.625,25.776,25.776,0,0,0,2.438,2.858,25.465,25.465,0,0,0,2.837,2.416,1.032,1.032,0,0,0,.571.217l.632-.882.583-.916a2.462,2.462,0,0,1,1.915-.808,1.768,1.768,0,0,1,.4.041,25.923,25.923,0,0,1,5.675,1.831,2.459,2.459,0,0,1,.967,2.777,12.593,12.593,0,0,1-2.845,4.374,12.817,12.817,0,0,1-1.141,1l-.27.212-.69.011Zm-16.867-18.886a16.994,16.994,0,0,0,5.206,11.541l.1.1a16.772,16.772,0,0,0,11.514,5.177c.242-.2.472-.409.687-.623a10.534,10.534,0,0,0,2.379-3.66c-.011-.008-.052-.134-.1-.236a24.207,24.207,0,0,0-5.073-1.608,2.066,2.066,0,0,0-.243.051l-1.039,1.638a2.533,2.533,0,0,1-3.588.313,27.526,27.526,0,0,1-3.079-2.624,28.178,28.178,0,0,1-2.647-3.1,2.925,2.925,0,0,1-.567-2.26,1.99,1.99,0,0,1,.893-1.335l1.632-1.036a1.113,1.113,0,0,0,.041-.286c-.454-1.69-1.1-3.557-1.628-5.043a.935.935,0,0,0-.281-.059,10.573,10.573,0,0,0-3.591,2.364c-.21.211-.415.436-.622.684Z"/>
  </g>
</svg>
