<svg xmlns="http://www.w3.org/2000/svg" width="26.303" height="57.505" viewBox="0 0 26.303 57.505">
  <path id="Path_10796" data-name="Path 10796" d="M101.438,67a13.033,13.033,0,0,0-6.493-1.885h-.233a12.746,12.746,0,0,0-6.748,1.862,13.189,13.189,0,0,0-5.981,7.982c-.093.466-.21.908-.256,1.373a8.773,8.773,0,0,0-.163,1.931c0,1.769.838,5.632,1.908,9.867.256,1.094.559,2.188.838,3.3,1.024,3.677,2.095,7.354,2.839,9.867.233.838.442,1.559.605,2.094.14.419.256.814.372,1.21,2.723,9.006,5.47,16.826,5.493,16.9a1.636,1.636,0,0,0,3.118-.046c.442-1.28,3.606-12.684,6.655-23.458l.349-1.187q.209-.768.558-2.094c.7-2.56,1.745-6.446,2.513-9.867.256-1.187.489-2.3.651-3.3a17.433,17.433,0,0,0,.4-3.281A12.926,12.926,0,0,0,101.438,67Z" transform="translate(-81.56 -65.118)"/>
</svg>
