<svg xmlns="http://www.w3.org/2000/svg" width="20.778" height="19" viewBox="0 0 20.778 19">
  <path id="plant" d="M20.077,1.861h0c-2.546,0-6.072.2-7.933,2.057a4.855,4.855,0,0,0-1.175,3.428,5.337,5.337,0,0,0,.49,2.155,10.325,10.325,0,0,0-1.273,2.546A18.1,18.1,0,0,0,8.912,8.325c1.175-1.567,1.371-4.7-.294-6.268C6.856.2,3.33,0,.784,0A.843.843,0,0,0,0,.784C0,3.33.2,6.856,2.057,8.716A4.557,4.557,0,0,0,5.093,9.892h.2A6.3,6.3,0,0,0,7.639,9.4c.881,1.861,1.469,4.7,1.469,8.814A.847.847,0,0,0,9.4,18.8a1.05,1.05,0,0,0,.588.2h0a.843.843,0,0,0,.784-.784,14.854,14.854,0,0,1,1.763-7.443,4.706,4.706,0,0,0,2.938.881h.2a4.213,4.213,0,0,0,3.036-1.175c1.861-1.861,2.057-5.387,2.057-7.933C20.861,2.155,20.469,1.861,20.077,1.861ZM16.649,7.052h0a.8.8,0,0,0,.49-.49.624.624,0,0,0,0-.588v-.1a.788.788,0,0,0-1.077-.294A9.828,9.828,0,0,0,12.83,7.933a3.947,3.947,0,0,1,.588-2.938c1.371-1.371,4.505-1.567,5.974-1.567-.1,3.036-.588,4.9-1.567,5.974a3.687,3.687,0,0,1-4.211.1A7.014,7.014,0,0,1,16.649,7.052ZM5.289,4.113c-.1-.1-.2-.2-.294-.2a.769.769,0,0,0-1.077,0,.891.891,0,0,0,0,1.175c.2.1.294.294.49.392A6.217,6.217,0,0,1,6.856,7.933a3.481,3.481,0,0,1-3.624-.392C1.763,6.17,1.665,3.036,1.567,1.567c3.036.1,4.995.588,5.876,1.567a3.807,3.807,0,0,1,.49,3.526A8.758,8.758,0,0,0,5.289,4.113Z"/>
</svg>
