<svg xmlns="http://www.w3.org/2000/svg" width="22" height="22.001" viewBox="0 0 22 22.001">
  <g id="arrows" transform="translate(0.638 0.639)">
    <path id="Path_10756" data-name="Path 10756" d="M18.892,3.423l-.115-.115a10.928,10.928,0,0,0-15.583.115,11.072,11.072,0,0,0,0,15.354A11.207,11.207,0,0,0,11.1,22.1,10.938,10.938,0,0,0,18.892,3.423Zm1.26,7.563a9.167,9.167,0,1,1-9.167-9.167A9.194,9.194,0,0,1,20.152,10.985Z" transform="translate(-0.738 -0.738)"/>
    <path id="Path_10757" data-name="Path 10757" d="M15.218,9.164,7.776,4.8a.678.678,0,0,0-.638,0,.663.663,0,0,0-.532.319.8.8,0,0,0-.106.425v8.612a.915.915,0,0,0,.851.851.639.639,0,0,0,.425-.106l7.443-4.359a1.061,1.061,0,0,0,.425-.532.7.7,0,0,0-.106-.638C15.431,9.377,15.325,9.27,15.218,9.164Zm-2.126.744L8.2,12.779V7.037Z" transform="translate(0.46 0.347)"/>
  </g>
</svg>
