<svg xmlns="http://www.w3.org/2000/svg" width="18" height="17.408" viewBox="0 0 18 17.408">
  <path id="Path_1811" data-name="Path 1811" d="M9.89,3.732a1.7,1.7,0,0,1,3.09,0L14.361,6.7a1.7,1.7,0,0,0,1.33.972l3.253.413a1.7,1.7,0,0,1,.958,2.927l-2.416,2.291a1.7,1.7,0,0,0-.5,1.553l.619,3.27a1.7,1.7,0,0,1-2.5,1.806l-2.836-1.579a1.7,1.7,0,0,0-1.657,0L7.771,19.935a1.7,1.7,0,0,1-2.5-1.806l.619-3.27a1.7,1.7,0,0,0-.5-1.553L2.969,11.015a1.7,1.7,0,0,1,.958-2.927l3.253-.413A1.7,1.7,0,0,0,8.51,6.7Z" transform="translate(-2.436 -2.746)"/>
</svg>
