<svg xmlns="http://www.w3.org/2000/svg" width="22.771" height="24" viewBox="0 0 22.771 24">
  <g id="Group_3314" data-name="Group 3314" transform="translate(-100.899 -1248.272)">
    <path id="Path_1779" data-name="Path 1779" d="M112.284,1272.272a56.483,56.483,0,0,1-8.907-.711,2.878,2.878,0,0,1-2.216-2.458c-.087-.826-.172-1.654-.249-2.486a3.242,3.242,0,0,1,1.625-2.993,22.5,22.5,0,0,1,6.026-1.885l-.033-.227a2.633,2.633,0,0,1-.985-1.681c-.021-.194-.043-.388-.066-.585a1.454,1.454,0,0,1-.87-1.187l-.244-2.345a1.43,1.43,0,0,1,.311-1.058,1.409,1.409,0,0,1,.245-.24l-.076-.706a4.428,4.428,0,0,1,1.187-3.926,6.744,6.744,0,0,1,8.546.031,4.412,4.412,0,0,1,1.153,3.89l-.017.195c-.019.178-.039.349-.06.516a1.483,1.483,0,0,1,.24.236,1.439,1.439,0,0,1,.312,1.066l-.242,2.342a1.437,1.437,0,0,1-.871,1.189l-.073.61a2.585,2.585,0,0,1-.974,1.654l-.033.228a22.279,22.279,0,0,1,5.983,1.868,3.257,3.257,0,0,1,1.664,3.013l-.245,2.481a2.883,2.883,0,0,1-2.2,2.454,56.569,56.569,0,0,1-8.934.715Zm-3.734-15.053a.89.89,0,0,1,.143.035,1.01,1.01,0,0,1,.683.84c.061.514.119,1.022.176,1.535a1.159,1.159,0,0,0,.459.472,1.007,1.007,0,0,1,.459.714l.228,1.636a1.008,1.008,0,0,1-.878,1.147,20.506,20.506,0,0,0-6.381,1.831,1.24,1.24,0,0,0-.519.993c.077.832.161,1.652.247,2.474a.879.879,0,0,0,.555.676,54.457,54.457,0,0,0,17.149-.005.877.877,0,0,0,.534-.671l.243-2.469a1.245,1.245,0,0,0-.555-1.014,20.413,20.413,0,0,0-6.345-1.815,1.013,1.013,0,0,1-.879-1.145l.237-1.647a1,1,0,0,1,.454-.7,1.135,1.135,0,0,0,.452-.471l.182-1.541a1.007,1.007,0,0,1,.685-.838.844.844,0,0,1,.139-.035l.117-1.122a.987.987,0,0,1-.161-.09,1.011,1.011,0,0,1-.431-.954l.012-.1c.049-.413.1-.821.145-1.234l.017-.206a2.513,2.513,0,0,0-.52-2.224,4.757,4.757,0,0,0-5.789-.032,2.519,2.519,0,0,0-.557,2.261l.173,1.543a1,1,0,0,1-.439.95.915.915,0,0,1-.153.086l.116,1.122Z" transform="translate(0)"/>
  </g>
</svg>
