<svg xmlns="http://www.w3.org/2000/svg" width="270" height="244.681" viewBox="0 0 270 244.681">
  <g id="Group_3492" data-name="Group 3492" transform="translate(-1002.616 -20.027)">
    <path id="Path_10787" data-name="Path 10787" d="M1183.283,48.764s-22.937-6.194-38.073.926c0,0-20.492,15.586-31.364,44.815a114.868,114.868,0,0,0-5.8-18.773c-.005-.014-13.122-41.18-63.768-28.844,0,0-21.1,10.932-27.42,26.418,0,0-7.406,40.585,20.379,77.615,0,0,30.229,43.365,75.6,66.389,0,0,.633-3.611,1.48-9.715,1.236,4.369,2.584,8.74,4.2,13.068,0,0,73.613-56.446,92.228-107.553C1210.749,113.11,1228.919,73.9,1183.283,48.764Z" transform="translate(22.917 42.156)" fill="#f08f27"/>
    <g id="Group_3489" data-name="Group 3489" transform="translate(1042.338 95.707)">
      <path id="Path_10788" data-name="Path 10788" d="M1043.3,87.826a3.987,3.987,0,0,0,1.676-.372c4.178-1.684,16.333-6.066,22.307-6.27a4.471,4.471,0,0,0-.144-8.941H1067c-8.636.269-23.687,6.219-25.377,6.909a4.5,4.5,0,0,0,1.676,8.675Z" transform="translate(-980.197 -6.066)" fill="#fff"/>
      <path id="Path_10789" data-name="Path 10789" d="M1140.3,64.647c6.4.807,12.72,2.336,15.483,4.906a4.509,4.509,0,0,0,6.336-.217,4.537,4.537,0,0,0-.258-6.373c-3.494-3.238-9.161-5.165-14.877-6.308.54-.565.937-.951.956-.951a4.492,4.492,0,0,0-6.018-6.67,64.745,64.745,0,0,0-5.667,6.208c-4.181-.31-7.387-.3-8.248-.285a4.491,4.491,0,0,0,.063,8.982c.038,0,.065,0,.065-.014.527-.011,1.141.014,1.722.014a130.336,130.336,0,0,0-12.144,23.331,156.383,156.383,0,0,0-10.6,48c-1.328,20.12.861,41.626,6.275,63.933-52.482-33.057-72.651-67.891-78.9-81.407-.742-1.622-1.408-3.228-2.032-4.817,6.1-3.7,20.183-11.758,28.911-13.622a4.5,4.5,0,0,0-1.894-8.789c-9.251,2-22.669,9.419-29.865,13.646a96.587,96.587,0,0,1-3.111-32.21,4.482,4.482,0,0,0-8.9-1.043,103.385,103.385,0,0,0,8.745,50.586c6.286,13.644,16.314,28.072,28.96,41.743,15.045,16.292,33.473,31.248,54.818,44.508a4.265,4.265,0,0,0,2.355.679,4.425,4.425,0,0,0,3.828-2.146,3.264,3.264,0,0,0,.193-.513,4.272,4.272,0,0,0,2.059.579,4.368,4.368,0,0,0,1.144-.141,4.486,4.486,0,0,0,3.206-5.447c-13.217-51.124-5.7-87.846,2.929-109.675A119.207,119.207,0,0,1,1140.3,64.647Z" transform="translate(-1017.237 -47.884)" fill="#fff"/>
      <path id="Path_10790" data-name="Path 10790" d="M1094.43,96.386c-6.637-8.392-21.247-14.763-21.875-15.034A4.48,4.48,0,0,0,1069,89.575c3.635,1.595,14.029,6.887,18.346,12.4a4.55,4.55,0,0,0,3.543,1.722,4.538,4.538,0,0,0,3.545-7.311Z" transform="translate(-933.029 8.94)" fill="#fff"/>
    </g>
    <path id="Path_10791" data-name="Path 10791" d="M1212.877,64.624c-16.92-23.538-43.107-21.818-44.191-21.764a4.482,4.482,0,1,0,.655,8.941c.206-.038,22.212-1.491,36.225,18.039,15.863,22.074,10.664,47.193-16.357,79.044-5,5.912-9.821,11.231-14.529,16.254a41.18,41.18,0,0,0-20.476-11.283,4.491,4.491,0,0,0-1.592,8.84,32.485,32.485,0,0,1,15.828,8.971,486.7,486.7,0,0,1-42.3,38.04c-1.212.981-2.383,1.97-3.543,2.907a250.127,250.127,0,0,1-8.349-55.3c-.959-30.4,4.567-55.905,16.17-76.474,5.941.128,20.835,1.079,31.71,7.156a4.482,4.482,0,0,0,4.369-7.827c-10.085-5.637-22.549-7.49-30.637-8.069a100.3,100.3,0,0,1,15.314-17.382,4.5,4.5,0,0,0-5.987-6.708,109.319,109.319,0,0,0-21.28,26,3.892,3.892,0,0,0-.462.8c-1.815,3.124-3.524,6.335-5.072,9.677-4.524-13.3-11.34-23.527-20.318-30.362a55.393,55.393,0,0,0-42.4-10.163c-11.041,2.019-21.356,7.528-28.276,15.121A4.475,4.475,0,1,0,1034,65.1c5.542-6.064,14.249-10.688,23.274-12.334a46.248,46.248,0,0,1,35.328,8.468c8.667,6.6,15.035,17.189,18.9,31.49.443,1.53.826,3.122,1.19,4.716a3.879,3.879,0,0,0,.3.744c-.307.94-.658,1.837-.948,2.787a158.1,158.1,0,0,0-5.9,31.234c-11.584,1.182-23.913,7.735-24.483,8.044a4.48,4.48,0,0,0,2.135,8.43,4.764,4.764,0,0,0,2.122-.527c.117-.065,10.212-5.436,19.514-6.849-.25,5.382-.315,10.867-.13,16.521a254.585,254.585,0,0,0,8.02,54.865c-8.028-4.485-17-9.7-23.274-14.377-4.311-3.225-8.561-6.642-12.625-10.15-2.434-2.108-4.705-4.333-7.123-6.656-1.522-1.464-3.086-2.956-4.684-4.458-7.626-7.042-14.078-15.51-18.862-22.125a145.05,145.05,0,0,1-12.144-19.862,118.155,118.155,0,0,1,38.923-20.712,4.484,4.484,0,0,0-2.681-8.558,126.707,126.707,0,0,0-39.985,20.789,116.426,116.426,0,0,1-6.2-19.465c-1.693-7.8-1.657-15.727-1.63-24.168V79.491a4.481,4.481,0,1,0-8.963-.014c0,1.171-.014,2.287-.014,3.431-.032,8.506-.076,17.357,1.831,26.083a126.4,126.4,0,0,0,8.362,25.271c.188.424.426.861.622,1.285v.014a152.187,152.187,0,0,0,14.6,24.616c5.029,6.949,11.84,15.907,20.063,23.462,1.5,1.413,3.037,2.88,4.518,4.317,2.4,2.315,4.877,4.678,7.5,6.963,4.219,3.673,8.645,7.224,13.13,10.576,8.6,6.436,21.585,13.567,31.055,18.77l1.394.772a4.484,4.484,0,0,0,2.146.551,4.335,4.335,0,0,0,2.836-1.209,4.432,4.432,0,0,0,1.005-.565c2.665-2.247,5.58-4.648,8.7-7.218,16.151-13.222,38.3-31.362,64.229-61.982C1225.782,119.668,1231.248,90.216,1212.877,64.624Z" transform="translate(19.635 39.119)" fill="#c95528"/>
    <g id="Group_3490" data-name="Group 3490" transform="translate(1188.246 20.027)">
      <path id="Path_10792" data-name="Path 10792" d="M1114.692,66.073c.867-4.407,4.591-10.563,7.052-17.656.3-.872.66-1.9.995-3,11.351-31.827-10.976-21.3-21.34-.679-2.114,3.814-3.883,7.346-6.078,11.111a65.4,65.4,0,0,0-2.635-11.383c-8.77-29.686-24.9-35.2-21.2-.4a98.392,98.392,0,0,0,6.925,27.92c14.249,1.5,26.507,7.259,37.453,16.089,12.334-3.882,25.787-11.448,33.025-18.273,2.437-2.3,8.1-7.811,5.944-11.883C1150.955,50.588,1123.125,60.868,1114.692,66.073Z" transform="translate(-1070.944 -20.027)" fill="#019547"/>
    </g>
    <g id="Group_3491" data-name="Group 3491" transform="translate(1002.616 20.027)">
      <path id="Path_10793" data-name="Path 10793" d="M1043.239,66.073c-.867-4.407-4.591-10.563-7.052-17.656-.3-.872-.66-1.9-.994-3-11.35-31.827,10.975-21.3,21.34-.679,2.114,3.814,3.882,7.346,6.078,11.111a65.329,65.329,0,0,1,2.635-11.383c8.77-29.686,24.9-35.2,21.2-.4a98.393,98.393,0,0,1-6.925,27.92c-14.249,1.5-26.5,7.259-37.453,16.089-12.334-3.882-25.787-11.448-33.025-18.273-2.437-2.3-8.1-7.811-5.944-11.883C1006.976,50.588,1034.806,60.868,1043.239,66.073Z" transform="translate(-1002.616 -20.027)" fill="#019547"/>
    </g>
  </g>
</svg>
