<svg xmlns="http://www.w3.org/2000/svg" width="214.621" height="94.432" viewBox="0 0 214.621 94.432">
  <g id="Layer_2" transform="translate(119.344 46.77)">
    <g id="Group_3237" data-name="Group 3237">
      <g id="Group_3230" data-name="Group 3230">
        <path id="Path_1715" data-name="Path 1715" d="M-60.025-44.736q-2.365,0-2.366,1.265v14.692q0,1.261,2.366,1.263v1.568h-8.621v-1.568q2.34,0,2.34-1.263V-43.168l-5.756,17.219h-3.415l-5.756-17.219v14.389q0,1.266,2.339,1.263v1.568h-6.859v-1.568c1.559,0,2.337-.424,2.337-1.263V-43.471q0-1.268-2.337-1.265v-1.622h7.832l5.2,16.041,5.2-16.041h7.488v1.622Z" fill="#019547"/>
      </g>
      <g id="Group_3231" data-name="Group 3231">
        <path id="Path_1716" data-name="Path 1716" d="M-45.083-46.218a7.558,7.558,0,0,1,3.1,1.8,8.412,8.412,0,0,1,2.037,3.277,14.7,14.7,0,0,1,.737,4.99,14.335,14.335,0,0,1-.631,4.4,9,9,0,0,1-1.891,3.345,8.331,8.331,0,0,1-3.182,2.14,12.176,12.176,0,0,1-4.467.755,13.832,13.832,0,0,1-3.863-.521,7.569,7.569,0,0,1-3.088-1.729,8.28,8.28,0,0,1-2.05-3.15,13.473,13.473,0,0,1-.748-4.8,16.811,16.811,0,0,1,.579-4.594,9.073,9.073,0,0,1,1.812-3.482A7.932,7.932,0,0,1-53.581-46a12.3,12.3,0,0,1,4.6-.771A13.273,13.273,0,0,1-45.083-46.218Zm-6.58,2.21a4.768,4.768,0,0,0-1.933,1.47,6.311,6.311,0,0,0-1.1,2.361,13,13,0,0,0-.356,3.185,21.5,21.5,0,0,0,.4,4.546,7.681,7.681,0,0,0,1.13,2.8,3.863,3.863,0,0,0,1.786,1.427,6.658,6.658,0,0,0,2.367.4,7.065,7.065,0,0,0,2.917-.534,4.512,4.512,0,0,0,1.893-1.566,6.9,6.9,0,0,0,1.024-2.554,17.486,17.486,0,0,0,.316-3.5,17.966,17.966,0,0,0-.408-4.2,7.045,7.045,0,0,0-1.144-2.61,3.926,3.926,0,0,0-1.773-1.348,6.556,6.556,0,0,0-2.3-.383A7.045,7.045,0,0,0-51.663-44.008Z" fill="#019547"/>
      </g>
      <g id="Group_3232" data-name="Group 3232">
        <path id="Path_1717" data-name="Path 1717" d="M-27.9-46.356a16.986,16.986,0,0,1,3.08.258,6.279,6.279,0,0,1,2.381.936,4.426,4.426,0,0,1,1.527,1.826,6.933,6.933,0,0,1,.54,2.941,7.437,7.437,0,0,1-.54,3.021,4.755,4.755,0,0,1-1.529,1.933,6.2,6.2,0,0,1-2.381,1.031,14.644,14.644,0,0,1-3.082.3h-4.058v5.325q0,1.265,2.917,1.267v1.568h-9.276v-1.568c1.56,0,2.338-.424,2.338-1.263V-43.472q0-1.268-2.338-1.265v-1.622H-27.9v0Zm-4.062,2.306v7.691h3.6a3.931,3.931,0,0,0,3.049-1.02,4.364,4.364,0,0,0,.919-3,3.758,3.758,0,0,0-.919-2.7,4.075,4.075,0,0,0-3.049-.967h-3.6Z" fill="#019547"/>
      </g>
      <g id="Group_3233" data-name="Group 3233">
        <path id="Path_1718" data-name="Path 1718" d="M.667-28.641a3.089,3.089,0,0,1-.682,2.086,3.22,3.22,0,0,1-2.52.8,5.533,5.533,0,0,1-1.682-.217,2.779,2.779,0,0,1-1.105-.618,2.269,2.269,0,0,1-.6-.947,3.782,3.782,0,0,1-.185-1.21v-3.734a3.651,3.651,0,0,0-.644-2.429,3.055,3.055,0,0,0-2.351-.729h-3.681v6.861q0,1.269,2.47,1.27v1.565h-8.829v-1.568c1.559,0,2.338-.424,2.338-1.263V-43.5q0-1.266-2.338-1.263v-1.592h8.829v1.592c-1.647,0-2.471.424-2.471,1.263v5.851H-8.5a1.811,1.811,0,0,0,1.521-.673,3.5,3.5,0,0,0,.529-2.156v-2.554a3.79,3.79,0,0,1,.879-2.6,3.294,3.294,0,0,1,2.614-1,4.215,4.215,0,0,1,1.55.259,2.868,2.868,0,0,1,1.065.7,2.766,2.766,0,0,1,.6,1.028,3.823,3.823,0,0,1,.2,1.223,2.981,2.981,0,0,1-.513,1.77,1.8,1.8,0,0,1-1.589.728,2.159,2.159,0,0,1-1.484-.495A1.685,1.685,0,0,1-3.7-42.761a2.052,2.052,0,0,1,.409-1.316,1.919,1.919,0,0,1,1.275-.66,1.853,1.853,0,0,0-.765-.167A1.519,1.519,0,0,0-4-44.4a2.563,2.563,0,0,0-.432,1.665v2.251a5.709,5.709,0,0,1-.356,2.126,2.989,2.989,0,0,1-1.458,1.5,5.176,5.176,0,0,1,3.1,1.489,4.92,4.92,0,0,1,1.059,3.417v3.581c0,.533.206.8.614.8s.618-.265.618-.8v-1.759H.666v1.484Z" fill="#019547"/>
      </g>
      <g id="Group_3234" data-name="Group 3234">
        <path id="Path_1719" data-name="Path 1719" d="M16.029-46.218a7.594,7.594,0,0,1,3.1,1.8,8.407,8.407,0,0,1,2.034,3.277,14.742,14.742,0,0,1,.735,4.992,14.21,14.21,0,0,1-.633,4.4A8.91,8.91,0,0,1,19.376-28.4a8.346,8.346,0,0,1-3.182,2.142,12.185,12.185,0,0,1-4.467.75,13.673,13.673,0,0,1-3.861-.521,7.537,7.537,0,0,1-3.088-1.727,8.25,8.25,0,0,1-2.05-3.152,13.448,13.448,0,0,1-.75-4.8,16.847,16.847,0,0,1,.581-4.594A9.032,9.032,0,0,1,4.371-43.79,7.929,7.929,0,0,1,7.522-46a12.3,12.3,0,0,1,4.6-.771A13.29,13.29,0,0,1,16.029-46.218Zm-6.586,2.21a4.758,4.758,0,0,0-1.93,1.47,6.358,6.358,0,0,0-1.1,2.361,12.855,12.855,0,0,0-.355,3.185,21.522,21.522,0,0,0,.394,4.546,7.7,7.7,0,0,0,1.131,2.8,3.844,3.844,0,0,0,1.784,1.427,6.637,6.637,0,0,0,2.366.4,7.044,7.044,0,0,0,2.914-.534,4.5,4.5,0,0,0,1.9-1.566,6.933,6.933,0,0,0,1.024-2.554,17.35,17.35,0,0,0,.314-3.5,18.1,18.1,0,0,0-.4-4.2,7.077,7.077,0,0,0-1.141-2.61,3.958,3.958,0,0,0-1.773-1.348,6.583,6.583,0,0,0-2.3-.383A7.082,7.082,0,0,0,9.443-44.008Z" fill="#019547"/>
      </g>
      <g id="Group_3235" data-name="Group 3235">
        <path id="Path_1720" data-name="Path 1720" d="M33.852-46.356a18.557,18.557,0,0,1,2.666.179,6.062,6.062,0,0,1,2.184.712,3.864,3.864,0,0,1,1.472,1.55,5.745,5.745,0,0,1,.536,2.667,4.1,4.1,0,0,1-.3,1.618,4.062,4.062,0,0,1-.814,1.249,4.853,4.853,0,0,1-1.194.909,6.242,6.242,0,0,1-1.444.561,6.342,6.342,0,0,1,3.72,1.458A4.412,4.412,0,0,1,42-32.019a7.371,7.371,0,0,1-.5,2.883,4.575,4.575,0,0,1-1.445,1.87A5.927,5.927,0,0,1,37.72-26.25a15.3,15.3,0,0,1-3.207.3H22.786v-1.568c1.562,0,2.339-.424,2.339-1.263V-43.385c0-.846-.777-1.267-2.339-1.267v-1.675Zm-4.7,2.387v6.4h4.258a3.189,3.189,0,0,0,2.361-.8,3.474,3.474,0,0,0,.789-2.526,3.027,3.027,0,0,0-.812-2.321,3.324,3.324,0,0,0-2.338-.757Zm0,8.24V-28.2h4.938a4.469,4.469,0,0,0,1.721-.287,2.835,2.835,0,0,0,1.131-.813,3.111,3.111,0,0,0,.613-1.255,6.677,6.677,0,0,0,.186-1.638,3.468,3.468,0,0,0-.92-2.716,3.984,3.984,0,0,0-2.73-.814H29.149v0Z" fill="#019547"/>
      </g>
      <g id="Group_3236" data-name="Group 3236">
        <path id="Path_1721" data-name="Path 1721" d="M43.507-25.949v-1.568a3.346,3.346,0,0,0,1.867-.357,1.021,1.021,0,0,0,.474-.8v-14.96a.942.942,0,0,0-.6-.854,3.932,3.932,0,0,0-1.736-.3v-1.566h8.8v1.566a3.908,3.908,0,0,0-1.933.333.974.974,0,0,0-.513.827v5.514h3.7a23.8,23.8,0,0,1,3.347.218,7.45,7.45,0,0,1,2.593.834,4.206,4.206,0,0,1,1.68,1.754,6.39,6.39,0,0,1,.59,2.948,6.772,6.772,0,0,1-.619,3.042,5.038,5.038,0,0,1-1.721,1.985,7.21,7.21,0,0,1-2.606,1.073,16.022,16.022,0,0,1-3.265.312H43.507ZM53.993-28.2a3.546,3.546,0,0,0,2.827-1.075,4.311,4.311,0,0,0,.932-2.918,3.738,3.738,0,0,0-.9-2.828,4.1,4.1,0,0,0-2.853-.843H49.87V-28.2h4.123Z" fill="#019547"/>
      </g>
    </g>
    <g id="Group_3239" data-name="Group 3239">
      <g id="Group_3238" data-name="Group 3238">
        <path id="Path_1722" data-name="Path 1722" d="M79.036-9.383a459.74,459.74,0,0,0-182.184,0c-1.186.237-2.018,1.084-1.853,1.874q2.622,12.657,5.243,25.317c.164.789,1.206,1.246,2.314,1.021a431.009,431.009,0,0,1,170.78,0c1.109.228,2.146-.231,2.314-1.021Q78.269,5.151,80.89-7.509C81.059-8.3,80.223-9.146,79.036-9.383Z" fill="#f08f27"/>
      </g>
    </g>
    <g id="Group_3240" data-name="Group 3240">
      <path id="Path_1723" data-name="Path 1723" d="M-77.239,18.889c-.706.1-16.854,3.3-19.424,3.817a6.6,6.6,0,0,1-1.344.135,5.533,5.533,0,0,1-5.619-4.229L-107.454.133l-10.12,1.935c-1.649.315-2.257,1.346-1.348,2.284l8.645,8.947a3.957,3.957,0,0,1,.749,3.91l-4.729,11.507c-.5,1.21.446,1.942,2.1,1.625l32.809-6.28c1.65-.314,2.812-1.547,2.584-2.731Z" fill="#f08f27"/>
    </g>
    <g id="Group_3241" data-name="Group 3241">
      <path id="Path_1724" data-name="Path 1724" d="M53.139,19.031c.7.1,16.889,3.152,19.454,3.675a6.676,6.676,0,0,0,1.347.135,5.532,5.532,0,0,0,5.619-4.229L83.387.133,93.5,2.068c1.652.315,2.26,1.346,1.35,2.284L86.211,13.3a3.948,3.948,0,0,0-.749,3.91l4.729,11.507c.5,1.21-.447,1.942-2.1,1.625l-32.811-6.28c-1.646-.314-2.812-1.547-2.585-2.731Z" fill="#f08f27"/>
    </g>
    <path id="Path_1725" data-name="Path 1725" d="M-2.1,21.245s-3.487-.942-5.787.14A16.314,16.314,0,0,0-12.659,28.2a17.479,17.479,0,0,0-.881-2.854s-1.995-6.261-9.694-4.385c0,0-3.208,1.661-4.168,4.016a16.36,16.36,0,0,0,3.1,11.8A35.582,35.582,0,0,0-12.812,46.866s.1-.548.225-1.476c.188.664.393,1.327.639,1.985,0,0,11.19-8.58,14.02-16.349C2.072,31.027,4.833,25.066-2.1,21.245Z" fill="#f08f27"/>
    <g id="Group_3242" data-name="Group 3242">
      <path id="Path_1726" data-name="Path 1726" d="M-17.42,34.4a.62.62,0,0,0,.255-.057,14.173,14.173,0,0,1,3.391-.953.684.684,0,0,0,.66-.7.679.679,0,0,0-.682-.659h-.021a15.221,15.221,0,0,0-3.858,1.051.685.685,0,0,0-.378.888A.683.683,0,0,0-17.42,34.4Z" fill="#fff"/>
      <path id="Path_1727" data-name="Path 1727" d="M-8.305,24.521a4.8,4.8,0,0,1,2.354.746.672.672,0,0,0,.465.181.674.674,0,0,0,.5-.214.689.689,0,0,0-.039-.969,4.8,4.8,0,0,0-2.262-.959c.083-.086.143-.145.146-.146A.684.684,0,0,0-7.1,22.2a.682.682,0,0,0-.963-.051,9.738,9.738,0,0,0-.862.942c-.635-.046-1.123-.044-1.253-.042a.687.687,0,0,0-.675.694.685.685,0,0,0,.685.67c.005,0,.009,0,.009,0,.08,0,.174,0,.262,0a19.791,19.791,0,0,0-1.846,3.548,23.752,23.752,0,0,0-1.611,7.3,32.34,32.34,0,0,0,.954,9.719C-20.374,39.95-23.44,34.656-24.39,32.6c-.113-.246-.214-.49-.309-.734a18.757,18.757,0,0,1,4.4-2.07.687.687,0,0,0,.522-.814.684.684,0,0,0-.81-.521,19.034,19.034,0,0,0-4.54,2.074,14.683,14.683,0,0,1-.473-4.9.684.684,0,0,0-.6-.755.685.685,0,0,0-.754.6,15.711,15.711,0,0,0,1.329,7.688,25.165,25.165,0,0,0,4.4,6.347,40.071,40.071,0,0,0,8.333,6.765.64.64,0,0,0,.358.1.674.674,0,0,0,.582-.327.493.493,0,0,0,.029-.078.661.661,0,0,0,.313.088.7.7,0,0,0,.174-.021.682.682,0,0,0,.488-.828c-2.01-7.771-.867-13.354.445-16.672A18.008,18.008,0,0,1-8.305,24.521Z" fill="#fff"/>
      <path id="Path_1728" data-name="Path 1728" d="M-2.478,37.984A10.138,10.138,0,0,0-5.8,35.7a.678.678,0,0,0-.895.352.681.681,0,0,0,.354.9,8.67,8.67,0,0,1,2.789,1.883.691.691,0,0,0,.538.262.688.688,0,0,0,.423-.15A.683.683,0,0,0-2.478,37.984Z" fill="#fff"/>
    </g>
    <path id="Path_1729" data-name="Path 1729" d="M1.9,23.195a7.988,7.988,0,0,0-6.718-3.31.681.681,0,0,0-.632.731.676.676,0,0,0,.732.628A6.625,6.625,0,0,1,.784,23.987C3.2,27.342,2.406,31.161-1.7,36c-.761.9-1.494,1.707-2.21,2.471a6.258,6.258,0,0,0-3.112-1.715.687.687,0,0,0-.79.551.684.684,0,0,0,.548.793,4.928,4.928,0,0,1,2.406,1.363,74.093,74.093,0,0,1-6.43,5.783c-.185.148-.363.3-.539.441A38,38,0,0,1-13.1,37.284a21.92,21.92,0,0,1,2.458-11.625,11.269,11.269,0,0,1,4.82,1.088.665.665,0,0,0,.335.089.673.673,0,0,0,.589-.351.681.681,0,0,0-.26-.928A11.677,11.677,0,0,0-9.812,24.33a15.328,15.328,0,0,1,2.328-2.641.686.686,0,0,0,.053-.965.688.688,0,0,0-.963-.056,16.674,16.674,0,0,0-3.235,3.953.605.605,0,0,0-.07.121c-.276.476-.536.963-.771,1.471A9.445,9.445,0,0,0-15.559,21.6,8.419,8.419,0,0,0-22,20.054a7.784,7.784,0,0,0-4.3,2.3.684.684,0,0,0,.044.963.684.684,0,0,0,.963-.049,6.5,6.5,0,0,1,3.538-1.875,7.029,7.029,0,0,1,5.371,1.287,8.64,8.64,0,0,1,2.873,4.786c.067.233.126.476.181.718a.622.622,0,0,0,.046.113c-.047.143-.1.278-.144.424a23.986,23.986,0,0,0-.9,4.748,11.743,11.743,0,0,0-3.722,1.223.686.686,0,0,0-.276.925.687.687,0,0,0,.6.356.713.713,0,0,0,.322-.08,10.987,10.987,0,0,1,2.967-1.041c-.038.817-.048,1.652-.02,2.511a38.717,38.717,0,0,0,1.219,8.34,34.851,34.851,0,0,1-3.538-2.185c-.655-.49-1.3-1.011-1.919-1.543-.37-.32-.715-.658-1.083-1.013-.231-.221-.469-.448-.712-.678a22.6,22.6,0,0,1-2.867-3.363A21.936,21.936,0,0,1-25.2,33.9a17.988,17.988,0,0,1,5.917-3.149.68.68,0,0,0,.446-.851.683.683,0,0,0-.854-.45,19.243,19.243,0,0,0-6.078,3.162,17.739,17.739,0,0,1-.943-2.96,16.978,16.978,0,0,1-.248-3.674v-.525a.686.686,0,0,0-.682-.686.683.683,0,0,0-.68.684c0,.177,0,.347,0,.521a18.09,18.09,0,0,0,.278,3.965,19.261,19.261,0,0,0,1.271,3.843c.029.063.065.13.095.194v0a23.145,23.145,0,0,0,2.219,3.742,23.689,23.689,0,0,0,3.05,3.566c.229.215.462.438.687.658.364.35.741.711,1.14,1.057.641.559,1.314,1.1,2,1.609a44.357,44.357,0,0,0,4.721,2.852l.212.117a.674.674,0,0,0,.326.084.666.666,0,0,0,.431-.182.722.722,0,0,0,.153-.086c.4-.342.848-.707,1.323-1.1A68.865,68.865,0,0,0-.66,36.874C3.858,31.561,4.689,27.084,1.9,23.195Z" fill="#c95528"/>
    <g id="Group_3260" data-name="Group 3260">
      <g id="Group_3243" data-name="Group 3243">
        <path id="Path_1730" data-name="Path 1730" d="M-84.342,9.646c-.064-.1-.126-.207-.189-.312-.007-.087-.014-.169-.021-.255l-.147-.247c-.089-.021-.177-.045-.266-.068-.068.01-.138.021-.206.027a1.482,1.482,0,0,0-.666-.091c-.225-.091-.449-.177-.676-.263a3.41,3.41,0,0,0-.537-.43c-1.633-2.194-2.763-6.376-1.131-8.8.246-.226.492-.357.741-.566.143-.05.288-.1.432-.153.049-.062.1-.125.149-.187.027-.1.054-.21.083-.312-.015-.1-.031-.2-.047-.3.011-.105.025-.21.04-.32.062-.045.125-.091.188-.141.078-.03.152-.064.229-.1.071.041.143.087.214.132.068.1.136.2.207.3.007.068.016.135.023.206.068.1.136.191.2.288.087.048.173.1.26.141.3-.017.578.026.883.018a6.879,6.879,0,0,1,1.068.593C-81.8.8-80.882,4.974-82.048,7.4a3.187,3.187,0,0,1-1.346.986c-.1.092-.189.188-.286.283-.009.086-.021.173-.029.266.016.1.032.209.049.318-.013.091-.021.188-.031.283-.067.057-.136.117-.2.178l-.227.061a2.349,2.349,0,0,0-.221-.127C-84.406,9.542-84.265,9.688-84.342,9.646Zm-.608-1.994c.014-.092.028-.188.042-.285-.519-2.491-.883-5.046-1.493-7.512-.067-.125-.134-.246-.2-.374-.065-.023-.133-.043-.2-.064-.074.05-.152.1-.229.148-.067.014-.137.03-.208.043a1.166,1.166,0,0,1-.308.322,2.526,2.526,0,0,0-.345.641c-.395,1.984.311,4.285,1.042,6.142a1.43,1.43,0,0,1,.283.411,3.659,3.659,0,0,0,.976.634,1.628,1.628,0,0,1,.446-.019c.06-.024.131-.055.2-.087C-84.936,7.561-85.017,7.684-84.95,7.652Zm1.48-.222c.072-.039.144-.075.217-.112a2.831,2.831,0,0,1,.473-.541c.654-1.657-.114-3.332-.267-5.015C-83.276,1.17-83.427.577-83.7,0a3.355,3.355,0,0,0-.715-.657,2.714,2.714,0,0,0-.879-.228c-.065.052-.133.109-.2.16-.019.1-.04.194-.058.29.673,2.432.968,5.023,1.474,7.5.065.119.131.237.2.358.076.014.147.03.22.043a1.886,1.886,0,0,0,.188-.031C-83.4,7.391-83.534,7.443-83.47,7.43Z" fill="#c95528"/>
      </g>
      <g id="Group_3244" data-name="Group 3244">
        <path id="Path_1731" data-name="Path 1731" d="M-77.489,8.089c-.076-.015-.154-.032-.229-.046-.064-.094-.129-.186-.191-.273a20.145,20.145,0,0,0-.526-2.909c0-.091,0-.183-.007-.278-.441-1.27-.393-2.676-.757-3.967,0-.1-.007-.2-.012-.306a31.276,31.276,0,0,1-.639-3.389c.021-.116.046-.23.067-.34.064-.073.129-.142.194-.21.476.024.911-.18,1.394-.18.114-.039.227-.078.341-.114a1.341,1.341,0,0,0,.58-.064,1.078,1.078,0,0,0,.455.041c.24.072.461.173.7.242A4.367,4.367,0,0,1-74.553-.095a3.818,3.818,0,0,1-.694,2.689c-.109.109-.219.21-.329.315-.194.109-.385.214-.58.324-.43.11-.858.219-1.286.331-.051.048-.105.1-.156.144-.022.1-.043.192-.062.288.3,1.144.409,2.348.637,3.51l-.042.406c-.063.059-.125.125-.189.188-.073,0-.153-.006-.235-.011S-77.407,8.094-77.489,8.089Zm.6-5.572c.143-.057.283-.119.423-.178a1.352,1.352,0,0,1,.393-.258l.181-.169c.087-.157.174-.317.26-.477a1.407,1.407,0,0,1,.145-.491A5.108,5.108,0,0,0-76.4-2.671c-.126-.089-.25-.176-.376-.267a1.8,1.8,0,0,1-.472-.069,10.07,10.07,0,0,1-1.3.14c-.058.068-.12.135-.18.206-.009.1-.019.212-.031.312a46.145,46.145,0,0,1,.772,4.6c.054.087.107.178.162.265.085.039.172.073.259.109a2.245,2.245,0,0,0,.676-.1C-76.743,2.46-76.988,2.545-76.886,2.517Z" fill="#c95528"/>
      </g>
      <g id="Group_3245" data-name="Group 3245">
        <path id="Path_1732" data-name="Path 1732" d="M-69.98,6.825c-.056-.091-.113-.178-.169-.267V6.213c.049-.068.1-.141.147-.214.125-.061.25-.12.376-.178a1.989,1.989,0,0,0,.365-.589,1.253,1.253,0,0,1,.145-.518C-68.9,2.083-70.767.161-71.6-2.226a17.4,17.4,0,0,1-1.1-2.15c.014-.082.03-.167.047-.251l.189-.169.205-.048c.114.025.228.052.343.08.077.078.157.151.236.224A48.371,48.371,0,0,1-68.9,1.443c.025.014.051.027.077.043.05-1.9.5-3.853.411-5.751a9.689,9.689,0,0,1,.222-1.1c.138-.041.842-.3.842.169-.448,2.715.3,9.367-1.59,11.715q-.174.112-.336.24l-.448.158a2.413,2.413,0,0,1-.257-.089C-70.036,6.734-69.9,6.857-69.98,6.825Z" fill="#c95528"/>
      </g>
      <g id="Group_3246" data-name="Group 3246">
        <path id="Path_1733" data-name="Path 1733" d="M-58.943,5.173c-.465-.656-.653-1.442-1.106-2.1a35.27,35.27,0,0,0-1.6-3.353c-.433-.515-.834.2-.9.293-.04.1-.077.2-.114.292.318,1.63.332,3.339.7,4.956-.025.082-.051.169-.074.249-.078.062-.149.125-.225.187-.072.009-.145.021-.219.03l-.243-.069c-.046-.1-.093-.2-.138-.288C-63.281,1.963-64.074-1.469-64.3-4.9c-.075-.232-.1-.463-.168-.7.021-.1.042-.189.061-.283.071-.046.14-.089.211-.133.065-.014.13-.032.194-.045.1.037.2.075.3.114.056.062.112.123.168.187a39.525,39.525,0,0,1,.633,4.35l.126.206c.069.018.138.037.205.057.181-.155.362-.313.542-.466a6.888,6.888,0,0,0,.412-.607,7.909,7.909,0,0,0,.788-3.854l.132-.292c.068-.06.138-.119.207-.178.079,0,.161-.009.241-.016.077.043.152.084.23.125.038.075.075.15.115.226A11.25,11.25,0,0,1-61-1.337c.016.124.033.244.049.372a31.153,31.153,0,0,0,2.227,4.508c.187.467.372.781.56,1.207,0,.105.008.206.012.311-.042.043-.082.086-.124.134a1.124,1.124,0,0,0-.382.048c-.091-.024-.187-.047-.281-.07C-59.006,5.084-58.849,5.2-58.943,5.173Z" fill="#c95528"/>
      </g>
      <g id="Group_3247" data-name="Group 3247">
        <path id="Path_1734" data-name="Path 1734" d="M-53.353,4.552l-.266-.041c-.049-.062-.1-.128-.145-.187-.275-1.119-1.085-7.974-1.217-10.15-.019-.315-.309-.349-.383-.385-1.308.289-1.51.045-1.6.016-.047-.1-.091-.206-.136-.308.021-.089.044-.176.068-.265a43.359,43.359,0,0,1,4.762-.588c.042.119.081.242.124.36,0,.6-1.555.6-1.636.623-.254.061-.245.349-.279.44-.01.169,1.136,9.911,1.161,10.091-.015.089-.026.173-.04.263l-.218.144a1.575,1.575,0,0,0-.2-.013C-53.442,4.538-53.283,4.552-53.353,4.552Z" fill="#c95528"/>
      </g>
      <g id="Group_3248" data-name="Group 3248">
        <path id="Path_1735" data-name="Path 1735" d="M-47.735,4.009c-.073-.048-.145-.087-.22-.132-.784-2.691-.194-5.709-.952-8.4a13.626,13.626,0,0,0-.316-2.906c.024-.105.046-.21.067-.312.106-.037.211-.068.318-.1.136.009.266.019.4.03.051.084.1.171.152.255a18.186,18.186,0,0,1,.356,3.378c.049.073.1.142.147.212.083.03.166.062.248.094.471.022.945-.023,1.42-.014a7.929,7.929,0,0,1,.855.284c1.365,1.04,1.3,2.419,1.55,3.975-.128,1.323-.257,2.615-1.574,3.279-.37.073-.738.144-1.11.221-.079-.011-.159-.021-.238-.029l-.2.086a2.244,2.244,0,0,0-.57.089c-.117-.008-.224-.008-.336-.01C-47.808,3.961-47.623,4.011-47.735,4.009Zm1.373-1.086c.121-.018.246-.036.369-.052.2-.1.392-.174.6-.257a1.623,1.623,0,0,0,.355-.342c.1-.237.205-.47.308-.708a6.519,6.519,0,0,0-.634-4,1.58,1.58,0,0,0-.408-.352,1.837,1.837,0,0,0-.676-.193c-.2.03-.406.062-.607.091-.082-.021-.164-.043-.247-.062-.056.023-.109.041-.163.066-.072.062-.147.125-.219.192-.017.1-.038.208-.054.312.251,1.638.287,3.317.49,4.966l.121.262c.083.032.161.064.243.1a1.55,1.55,0,0,0,.526-.019C-46.241,2.9-46.471,2.932-46.362,2.923Zm4.431.53c-.084-.019-.169-.042-.252-.064-.059-.083-.115-.16-.173-.24-.621-3.639-.257-7.475-1.009-11.09.019-.094.042-.187.062-.278.069-.06.143-.114.212-.173.072,0,.145.014.215.018l.265.1c.058.068.114.139.172.21A51.684,51.684,0,0,0-41.678.49a11.7,11.7,0,0,0,.233,2.556c-.024.1-.049.2-.073.294l-.21.119c-.065-.006-.136-.006-.2-.006C-42.015,3.434-41.864,3.453-41.931,3.453Z" fill="#c95528"/>
      </g>
      <g id="Group_3249" data-name="Group 3249">
        <path id="Path_1736" data-name="Path 1736" d="M-28.682,2.77c-.139-.058-.308-.031-.431-.116C-31.906.719-31.125-7.234-30.5-8.383c.049-.078.1-.151.145-.229a2.515,2.515,0,0,1,2.6-.695c2.587,1.556,3.2,10.07.56,11.878-.068.007-.136.016-.207.025-.065.034-.133.064-.2.094a4.927,4.927,0,0,1-1.077.08C-28.756,2.745-28.613,2.773-28.682,2.77Zm.969-1.063c.067-.027.136-.052.2-.08A5.071,5.071,0,0,0-27.017.9a4.319,4.319,0,0,1,.2-.776,36.869,36.869,0,0,0-.26-6.887,4.814,4.814,0,0,0-.838-1.562,3.277,3.277,0,0,0-.444-.153,1.95,1.95,0,0,1-.624.014c-.122.061-.246.117-.372.169-1.657,1.777-.863,7.31-.039,9.407.108.125.216.247.321.376a1.379,1.379,0,0,1,.357.258c.071.022.14.05.208.073.206,0,.411-.007.619-.009a1.619,1.619,0,0,1,.174-.1C-27.646,1.68-27.771,1.736-27.713,1.707Z" fill="#c95528"/>
      </g>
      <g id="Group_3250" data-name="Group 3250">
        <path id="Path_1737" data-name="Path 1737" d="M-22.25,2.392c-.039-.082-.161-.325-.2-.4-.188-2.31-.268-9.968-.377-11.045l.134-.3.223-.125a9.479,9.479,0,0,1,2.5,0c3.658,1.093,1.443,5.493.607,5.3.179.131.723.667.854.78A5.074,5.074,0,0,1-18.118.578a2.141,2.141,0,0,1-1.9,1.691C-20.522,2.308-22.188,2.437-22.25,2.392Zm2.5-1.187c.068-.039.136-.073.2-.107,1.05-.926.729-2.806.591-3.447-.1-.243-.4-1.361-1.416-1.24-.36.028-.683.012-1.044.059a2.083,2.083,0,0,0-.292.471c.016.068-.037,4.543.461,4.528a12.764,12.764,0,0,0,1.5-.264C-19.684,1.166-20.067,1.276-19.752,1.205Zm-.717-5.725a1.815,1.815,0,0,0,.964-.671,2.723,2.723,0,0,0,.471-1.953c-.013-1.64-1.931-1.49-2.407-1.464-.307.017-.361.352-.4.455q.051,1.664.1,3.327a1.177,1.177,0,0,0,.357.347,2.383,2.383,0,0,0,.907-.041C-20.39-4.561-20.539-4.509-20.469-4.52Z" fill="#c95528"/>
      </g>
      <g id="Group_3251" data-name="Group 3251">
        <path id="Path_1738" data-name="Path 1738" d="M-13.005,2.366a1.664,1.664,0,0,0-.425-.132C-16,.645-15.343-5.364-14.724-7.92c.03-.062.477-1.085.527-1.161a2.527,2.527,0,0,1,2.622-.593c2.619,1.552,2.69,10.238.068,11.9-.069.005-.135.014-.206.019a2.8,2.8,0,0,1-1.292.123C-13.076,2.339-12.934,2.373-13.005,2.366ZM-11.026-.2c.534-2.28.145-4.57.031-6.9a4.347,4.347,0,0,0-.772-1.588,3.548,3.548,0,0,0-.435-.173,1.944,1.944,0,0,1-.623-.013c-.123.059-.315.032-.379.152-1.124,2.113-1.21,7.25-.439,9.394.315.875,1.27.75,1.475.757C-11.578,1.375-11.125.219-11.026-.2Z" fill="#c95528"/>
      </g>
      <g id="Group_3252" data-name="Group 3252">
        <path id="Path_1739" data-name="Path 1739" d="M1.084,4.4c-.032-.109-.063-.219-.1-.324.022-.429.059-.849.071-1.278-.034-.087-.062-.174-.1-.256L.737,2.43c-.284-.082-6.5-.2-7.058-.226-.1-.027-.2-.062-.3-.089-.037-.107-.068-.214-.107-.324C-6.65.354-6.6-8.76-6.636-9.288c.027-.073.057-.146.086-.219.112-.055.228-.109.34-.167.124.048.244.1.365.139.05.078.094.148.142.226C-5.664-7.062-5.856-.065-5.808.915c.045.1.091.191.135.29A9.12,9.12,0,0,0-4.1,1.3a2.566,2.566,0,0,0,.687-.05c.045-.109.087-.217.132-.324,0-3.365.081-6.739.2-10.1.046-.082.087-.169.132-.251l.242-.183.2.021c.071.052.146.1.219.157,1.025,2.652.022,7.53-.116,10.445.032.08.059.162.091.24.086.06.171.119.258.176a5.83,5.83,0,0,1,1.783.048c.078-.048.157-.1.24-.144C.047-2.8.172-6.609.424-9.06a1.689,1.689,0,0,1,.1-.306c.135-.05.265-.1.4-.155.109.078.221.155.331.23.039.1.07.194.105.292A96.419,96.419,0,0,0,1.029,1.052c.034.084.069.171.1.256.068.063.135.127.2.194a1.766,1.766,0,0,1,.444.166c.032.105.066.208.1.312,0,.731-.169,1.442-.2,2.169-.048.093-.1.187-.146.282-.082.039-.164.074-.246.11-.069-.048-.135-.1-.2-.144C1.052,4.288,1.15,4.445,1.084,4.4Z" fill="#c95528"/>
      </g>
      <g id="Group_3253" data-name="Group 3253">
        <path id="Path_1740" data-name="Path 1740" d="M4.826,2.448c-.205-1.073.5-8.913.374-11.418.023-.087.043-.169.064-.253.078-.043.155-.084.233-.125.157.046.319.091.475.139.041.086.075.171.118.257.015.943-.347,7.758-.442,10.168A.193.193,0,0,0,5.7,1.184C6.449-.524,8.57-7.8,9.027-8.756c.065-.075.132-.15.2-.228.088-.039.176-.082.262-.121h.646c.062.071.128.144.188.214.044.083.084.165.125.247C10.314-6.6,9.736.964,9.874,2.469c-.032.089-.062.176-.1.267a1.141,1.141,0,0,1-.471.06l-.2-.165C9.068,2.567,9.033,2.5,9,2.44a69.275,69.275,0,0,1,.5-9.348,3.083,3.083,0,0,1,.046-.785c-.023-.017-.047-.038-.069-.054A57.14,57.14,0,0,1,5.885,2.508c-.062.027-.132.059-.2.091l-.63-.014c-.082-.055-.155-.093-.233-.137C4.808,2.353,4.9,2.492,4.826,2.448Z" fill="#c95528"/>
      </g>
      <g id="Group_3254" data-name="Group 3254">
        <path id="Path_1741" data-name="Path 1741" d="M21.846,3.427C19.883,1.349,21.369-7.16,22.861-7.949c.207-.11.423-.184.636-.283.388,0,.718,0,1.12.034.394.138.711.34,1.092.493.062.062.121.123.184.187.033.1.062.2.1.3-.025.1-.052.187-.068.283-.05.069-.1.137-.146.206l-.242.014c-.067-.023-.139-.048-.207-.073-.057-.057-.121-.114-.18-.169a5.136,5.136,0,0,0-.965-.347c-.185.042-.371.025-.558.05-.688.093-2.719,6.609-1.444,9.612a1.351,1.351,0,0,0,.676.607,4.4,4.4,0,0,0,1.688-.2c.062-.05.128-.1.192-.15.082,0,.162.014.244.022.063.078.125.148.188.224,0,.119-.014.237-.021.356-.066.105-.135.217-.2.322-.315.13-.634.258-.945.388-.171.018-.342.037-.516.052a3.233,3.233,0,0,1-1.3-.3C22.076,3.594,21.963,3.507,21.846,3.427Z" fill="#c95528"/>
      </g>
      <g id="Group_3255" data-name="Group 3255">
        <path id="Path_1742" data-name="Path 1742" d="M28.113,4.165c-.034-.1-.064-.2-.094-.3.508-3.564.988-7.292,1.149-10.881.052-.137.1-.274.146-.411.074-.043.149-.086.229-.13A23.1,23.1,0,0,1,34-6.9c.021.091.05.178.079.269-.271,3.64-.872,6.93-1.264,11.07a.767.767,0,0,1-.108.226c-.08.023-.16.05-.242.073-.062-.007-.13-.014-.19-.023l-.25-.1c-.037-.084-.068-.169-.107-.251.04-.244,0-.488.027-.733.506-4.242.7-6.246,1.1-9.276-.015-.14-.034-.279-.051-.416-.077-.059-.154-.121-.237-.183a17.22,17.22,0,0,1-2.354-.278c-.088.045-.174.1-.258.144-.043.08-.082.158-.127.244-.073.6-.141,1.292-.191,1.907C29.453.3,29.12,1.44,28.921,3.983l-.146.2c-.08.041-.162.078-.248.114-.061,0-.127,0-.188,0-.077-.043-.155-.086-.226-.129C28.079,4.069,28.184,4.208,28.113,4.165Z" fill="#c95528"/>
      </g>
      <g id="Group_3256" data-name="Group 3256">
        <path id="Path_1743" data-name="Path 1743" d="M36.536,5.269C35.515,4.519,37.1-5.168,37.747-6.5c.075-.032,3.864.025,3.864,1.023,0,.092-.114.144-.174.219-.951.237-1.9-.483-2.812-.068a9.041,9.041,0,0,0-.557,4.077c.783.485,1.85.011,2.588.587.019.1.156.409-.1.621-2.422,1.321-2.3-2.065-3.082,2.247C36.8,5.9,38.244,3.623,40.05,4.871a.646.646,0,0,1-.092.758A11.1,11.1,0,0,1,36.536,5.269Z" fill="#c95528"/>
      </g>
      <g id="Group_3257" data-name="Group 3257">
        <path id="Path_1744" data-name="Path 1744" d="M47.7,8.842c-.026-.109-.055-.225-.084-.338.127-.4.137-.826.24-1.236-.035-.091-.025-.3-.287-.4-.313-.1-3.95-.623-4.1-.661-.067-.062-.139-.123-.205-.185-.028-.091-.051-.178-.071-.265a29.681,29.681,0,0,0,.479-3.279c.768-2.483.173-5.593,1.236-7.952l.221-.055.482.142c.031.084.061.171.091.255-.273,3.375-.89,6.778-1.459,10.118.021.107.048.214.071.322.072.039.148.08.226.119a10.546,10.546,0,0,0,2.444.222c.049-.073.1-.146.146-.221.1-.73,1.043-7.551,1.572-10.032.021-.1.123-.167.18-.244.078-.023.152-.048.227-.071.076.014.15.022.228.039.08.05.156.105.233.158.016.093.027.187.041.28-.492,3.319-1.265,6.7-1.563,10.037.021.087.039.178.056.267a7.171,7.171,0,0,1,.6.42,6.163,6.163,0,0,1-.4,2.4,1.376,1.376,0,0,1-.4.348c-.071-.065-.138-.122-.205-.18C47.671,8.732,47.764,8.9,47.7,8.842Z" fill="#c95528"/>
      </g>
      <g id="Group_3258" data-name="Group 3258">
        <path id="Path_1745" data-name="Path 1745" d="M51.637,7.4C51.494,3.7,53.176-.211,53.434-3.89c.031-.08.065-.162.1-.244.082-.032.161-.062.243-.1.15.069.3.135.455.2.029.094.054.183.082.274-.094.934-1.271,7.663-1.7,10.032l.062-.025A80.164,80.164,0,0,1,57.237-3.2c.072-.066.146-.132.225-.2.089-.027.18-.06.271-.091.218.03.436.057.648.086a1.19,1.19,0,0,1,.256.493c-.466,2.02-1.9,9.422-1.967,10.946-.044.082-.087.168-.13.25a1.043,1.043,0,0,1-.478,0c-.058-.062-.121-.123-.176-.188-.029-.066-.062-.138-.09-.2A40.908,40.908,0,0,1,57.6-2.086c-.022-.018-.041-.041-.062-.06a102.576,102.576,0,0,1-4.863,9.709c-.07.024-.14.05-.207.069-.209-.032-.421-.06-.625-.091-.069-.045-.138-.1-.209-.145C51.633,7.3,51.708,7.443,51.637,7.4Z" fill="#c95528"/>
      </g>
      <g id="Group_3259" data-name="Group 3259">
        <path id="Path_1746" data-name="Path 1746" d="M60.078,8.922c-.061-.992,1.841-8.737,2.05-11.236.039-.082.067-.162.1-.24.086-.032.168-.064.252-.091.146.071.3.139.451.21.025.091.051.183.073.274-.11.9-1.5,7.617-1.931,9.985a.255.255,0,0,1,.057-.022c.949-1.626,4.409-8.722,4.775-9.338.074-.066.148-.132.229-.2l.278-.08c.214.03.435.062.646.1a1.176,1.176,0,0,1,.244.5c-.484,2.007-2.136,9.378-2.213,10.9-.045.084-.089.17-.137.25-.078.006-.16.017-.242.024-.078-.015-.154-.022-.232-.036-.058-.059-.119-.124-.174-.191-.027-.062-.055-.133-.086-.2A87.8,87.8,0,0,1,66.256-.407.568.568,0,0,1,66.2-.471c-.92,1.378-2.691,6.663-5.092,9.6-.047.058-.143.041-.209.062-.211-.039-.416-.068-.629-.1a1.3,1.3,0,0,0-.191-.168C60.072,8.824,60.146,8.975,60.078,8.922Z" fill="#c95528"/>
      </g>
    </g>
    <g id="Group_3261" data-name="Group 3261">
      <path id="Path_1747" data-name="Path 1747" d="M-23.5,14.207a9.926,9.926,0,0,0-.388,1.689c-.323-.559-.586-1.082-.9-1.648-1.085.035-2.171.064-3.253.1.049.152.1.3.138.418.375,1.08.939,2.01,1.07,2.682-1.283-.8-5.513-2.352-6.106-1.236-.33.616.535,1.456.9,1.805A14.417,14.417,0,0,0-27.011,20.8a10.6,10.6,0,0,1,5.694-2.443,14.918,14.918,0,0,0,1.048-4.209C-21.348,14.157-22.425,14.18-23.5,14.207Z" fill="#019547"/>
    </g>
    <g id="Group_3262" data-name="Group 3262">
      <path id="Path_1748" data-name="Path 1748" d="M1.817,17.467c.132-.67.7-1.6,1.072-2.684.046-.131.1-.288.151-.457-1.082-.043-2.161-.072-3.243-.1-.322.58-.591,1.117-.924,1.689a9.9,9.9,0,0,0-.4-1.73c-1.073-.026-2.147-.041-3.222-.061A14.965,14.965,0,0,0-3.7,18.366a10.715,10.715,0,0,1,5.693,2.445,14.414,14.414,0,0,0,5.021-2.777c.37-.35,1.232-1.188.9-1.807C7.33,15.115,3.1,16.677,1.817,17.467Z" fill="#019547"/>
    </g>
    <g id="Group_3280" data-name="Group 3280">
      <g id="Group_3263" data-name="Group 3263">
        <path id="Path_1749" data-name="Path 1749" d="M-85.389,8.6c-.064-.1-.126-.207-.189-.312-.007-.087-.014-.169-.021-.255l-.147-.247-.266-.068c-.068.009-.138.021-.206.027a1.468,1.468,0,0,0-.666-.091c-.225-.09-.449-.176-.676-.262a3.462,3.462,0,0,0-.537-.429c-1.633-2.194-2.763-6.376-1.131-8.8.246-.226.492-.357.741-.566.143-.05.288-.1.432-.153.049-.062.1-.125.149-.187.027-.1.054-.21.083-.312-.015-.1-.031-.2-.047-.3.011-.105.025-.21.04-.32.062-.045.125-.091.188-.141.078-.03.152-.064.229-.1.071.041.143.087.214.132.068.1.136.2.207.3.007.068.016.135.023.206.068.1.136.191.2.288.087.048.173.1.26.141.3-.017.578.026.883.018a6.879,6.879,0,0,1,1.068.593c1.71,1.993,2.628,6.165,1.462,8.589a3.2,3.2,0,0,1-1.346.986c-.1.091-.189.188-.286.283-.009.086-.021.173-.029.266.016.1.032.209.049.318-.013.091-.021.188-.031.283-.067.057-.136.117-.2.178l-.227.061a1.713,1.713,0,0,0-.221-.129C-85.453,8.495-85.312,8.641-85.389,8.6ZM-86,6.606c.014-.093.028-.189.042-.285-.519-2.491-.883-5.046-1.493-7.512-.067-.125-.134-.246-.2-.374-.065-.023-.133-.043-.2-.064-.074.05-.152.1-.229.148-.067.014-.137.03-.208.043a1.166,1.166,0,0,1-.308.322,2.526,2.526,0,0,0-.345.641c-.395,1.984.311,4.285,1.042,6.142a1.43,1.43,0,0,1,.283.411,3.659,3.659,0,0,0,.976.634,1.589,1.589,0,0,1,.446-.018l.2-.088C-85.983,6.513-86.064,6.636-86,6.606Zm1.48-.223c.072-.039.144-.075.217-.112a2.831,2.831,0,0,1,.473-.541c.654-1.657-.114-3.332-.267-5.015-.229-.592-.38-1.185-.651-1.767a3.355,3.355,0,0,0-.715-.657,2.714,2.714,0,0,0-.879-.228c-.065.052-.133.109-.2.16-.019.1-.04.194-.058.29.673,2.432.968,5.023,1.474,7.5.065.119.131.237.2.358.076.014.147.03.22.043a1.887,1.887,0,0,0,.188-.031C-84.445,6.344-84.581,6.4-84.517,6.383Z" fill="#fff"/>
      </g>
      <g id="Group_3264" data-name="Group 3264">
        <path id="Path_1750" data-name="Path 1750" d="M-78.536,7.042c-.076-.014-.154-.032-.23-.046-.064-.093-.129-.185-.191-.274a20.083,20.083,0,0,0-.526-2.908c0-.091,0-.183-.007-.278-.441-1.27-.393-2.676-.757-3.967,0-.1-.007-.2-.012-.306A31.276,31.276,0,0,1-80.9-4.126c.021-.116.046-.23.067-.34.064-.073.129-.142.194-.21.476.024.911-.18,1.394-.18.114-.039.227-.078.341-.114a1.341,1.341,0,0,0,.58-.064,1.078,1.078,0,0,0,.455.041c.24.072.461.173.7.242A4.367,4.367,0,0,1-75.6-1.142,3.818,3.818,0,0,1-76.3,1.547c-.109.109-.219.21-.329.315-.194.109-.385.214-.58.324-.43.11-.858.219-1.286.331-.051.048-.105.1-.156.144-.021.1-.042.192-.061.288.3,1.144.409,2.348.637,3.51-.014.134-.028.269-.042.406-.063.059-.125.125-.189.187-.073,0-.153,0-.235-.01S-78.454,7.047-78.536,7.042Zm.6-5.572c.143-.057.283-.119.423-.178a1.352,1.352,0,0,1,.393-.258l.181-.169c.087-.157.174-.317.26-.477A1.407,1.407,0,0,1-76.531-.1a5.108,5.108,0,0,0-.913-3.615c-.126-.089-.25-.176-.376-.267a1.8,1.8,0,0,1-.472-.069,10.07,10.07,0,0,1-1.3.14c-.058.068-.12.135-.18.206-.009.1-.019.212-.031.312a46.145,46.145,0,0,1,.772,4.6c.054.087.107.178.162.265.085.039.172.073.259.109a2.214,2.214,0,0,0,.676-.1C-77.79,1.413-78.035,1.5-77.933,1.47Z" fill="#fff"/>
      </g>
      <g id="Group_3265" data-name="Group 3265">
        <path id="Path_1751" data-name="Path 1751" d="M-71.027,5.778c-.056-.091-.113-.178-.169-.267V5.166c.049-.068.1-.141.147-.214.125-.061.25-.12.376-.178a1.989,1.989,0,0,0,.365-.589,1.253,1.253,0,0,1,.145-.518c.219-2.631-1.651-4.553-2.487-6.94a17.4,17.4,0,0,1-1.1-2.15c.014-.082.03-.167.047-.251l.189-.169.205-.048c.114.025.228.052.343.08.077.078.157.151.236.224A48.371,48.371,0,0,1-69.948.4c.025.014.051.027.077.043.05-1.9.5-3.853.411-5.751a9.689,9.689,0,0,1,.222-1.1c.138-.041.842-.3.842.169-.448,2.715.3,9.367-1.59,11.715q-.174.112-.336.24l-.448.158a2.414,2.414,0,0,1-.257-.089C-71.083,5.687-70.946,5.81-71.027,5.778Z" fill="#fff"/>
      </g>
      <g id="Group_3266" data-name="Group 3266">
        <path id="Path_1752" data-name="Path 1752" d="M-59.99,4.126c-.465-.656-.653-1.442-1.106-2.1a35.27,35.27,0,0,0-1.6-3.353c-.433-.515-.834.2-.9.293-.04.1-.077.2-.114.292.318,1.63.332,3.339.7,4.956-.025.082-.051.169-.074.249-.078.062-.149.125-.225.187-.072.009-.145.021-.219.03l-.243-.069c-.046-.1-.093-.2-.138-.288-.416-3.412-1.209-6.844-1.432-10.275-.075-.232-.1-.463-.168-.7.021-.1.042-.189.061-.283.071-.046.14-.089.211-.133.065-.014.13-.032.194-.045.1.037.2.075.3.114.056.062.112.123.168.187a39.526,39.526,0,0,1,.633,4.35l.126.206c.069.018.138.037.205.057.181-.155.362-.313.542-.466a6.888,6.888,0,0,0,.412-.607,7.909,7.909,0,0,0,.788-3.854l.132-.292c.068-.06.138-.119.207-.178.079,0,.161-.009.241-.016.077.043.152.084.23.125.038.075.075.15.115.226a11.25,11.25,0,0,1-1.1,4.87c.016.124.033.244.049.372A31.153,31.153,0,0,0-59.775,2.5c.187.467.372.781.56,1.207,0,.105.008.206.012.311-.042.043-.082.086-.124.134a1.124,1.124,0,0,0-.382.048c-.091-.024-.187-.047-.281-.07C-60.053,4.037-59.9,4.149-59.99,4.126Z" fill="#fff"/>
      </g>
      <g id="Group_3267" data-name="Group 3267">
        <path id="Path_1753" data-name="Path 1753" d="M-54.4,3.505l-.266-.041c-.049-.062-.1-.128-.145-.187C-55.086,2.158-55.9-4.7-56.028-6.873c-.019-.314-.309-.349-.383-.385-1.308.289-1.51.045-1.6.016-.047-.1-.091-.206-.136-.308.021-.089.044-.176.068-.265A43.359,43.359,0,0,1-53.312-8.4c.042.119.081.242.124.36,0,.6-1.555.6-1.636.623-.254.061-.245.349-.279.44-.01.169,1.136,9.911,1.161,10.091-.015.089-.026.173-.04.263l-.218.144a1.575,1.575,0,0,0-.2-.013C-54.489,3.491-54.33,3.505-54.4,3.505Z" fill="#fff"/>
      </g>
      <g id="Group_3268" data-name="Group 3268">
        <path id="Path_1754" data-name="Path 1754" d="M-48.782,2.962c-.073-.048-.145-.087-.22-.132-.784-2.691-.194-5.709-.952-8.4a13.626,13.626,0,0,0-.316-2.906c.024-.1.046-.21.067-.312.106-.037.211-.068.318-.1.136.009.266.019.4.03.051.084.1.171.152.255a18.186,18.186,0,0,1,.356,3.378c.049.073.1.142.147.212.083.03.166.062.248.094.471.022.945-.023,1.42-.014a7.929,7.929,0,0,1,.855.284c1.365,1.04,1.3,2.419,1.55,3.975-.128,1.323-.257,2.615-1.574,3.279-.37.073-.738.144-1.11.221-.079-.011-.159-.021-.238-.029l-.2.086a2.244,2.244,0,0,0-.57.089c-.117-.008-.224-.008-.336-.01C-48.855,2.914-48.67,2.964-48.782,2.962Zm1.373-1.086c.121-.018.246-.036.369-.052.2-.1.392-.174.6-.257a1.623,1.623,0,0,0,.355-.342c.1-.237.205-.47.308-.708a6.519,6.519,0,0,0-.634-4,1.58,1.58,0,0,0-.408-.352A1.837,1.837,0,0,0-47.5-4.03c-.2.03-.406.062-.607.091-.082-.021-.164-.043-.247-.062-.056.023-.109.041-.163.066-.072.062-.147.125-.219.192-.017.1-.038.208-.054.312.251,1.638.287,3.317.49,4.966l.121.262c.083.032.161.064.243.1a1.525,1.525,0,0,0,.526-.019C-47.288,1.858-47.518,1.885-47.409,1.876Zm4.431.53c-.084-.019-.169-.042-.252-.064-.059-.083-.115-.16-.173-.24-.621-3.639-.257-7.475-1.009-11.09.019-.094.042-.187.062-.278.069-.06.143-.114.212-.173.072,0,.145.014.215.018l.265.1c.058.068.114.139.172.21a51.684,51.684,0,0,0,.761,8.558A11.7,11.7,0,0,0-42.492,2c-.024.1-.049.2-.073.294l-.21.119c-.065-.006-.136-.006-.2-.006C-43.062,2.387-42.911,2.406-42.978,2.406Z" fill="#fff"/>
      </g>
      <g id="Group_3269" data-name="Group 3269">
        <path id="Path_1755" data-name="Path 1755" d="M-29.729,1.723c-.139-.058-.308-.031-.431-.116C-32.953-.328-32.172-8.281-31.549-9.43c.049-.078.1-.151.145-.229a2.515,2.515,0,0,1,2.6-.695c2.587,1.556,3.2,10.07.56,11.878-.068.007-.136.016-.207.025-.065.034-.133.064-.2.094a4.861,4.861,0,0,1-1.077.08C-29.8,1.7-29.66,1.726-29.729,1.723ZM-28.76.66c.067-.027.136-.052.2-.08a5.071,5.071,0,0,0,.493-.73,4.319,4.319,0,0,1,.2-.776,36.869,36.869,0,0,0-.26-6.887,4.814,4.814,0,0,0-.838-1.562,3.277,3.277,0,0,0-.444-.153,1.95,1.95,0,0,1-.624.014c-.122.061-.246.117-.372.169-1.657,1.777-.863,7.31-.039,9.407.108.125.216.247.321.376A1.379,1.379,0,0,1-29.761.7c.071.022.14.05.208.073.206,0,.411-.007.619-.009a1.619,1.619,0,0,1,.174-.1C-28.693.633-28.818.689-28.76.66Z" fill="#fff"/>
      </g>
      <g id="Group_3270" data-name="Group 3270">
        <path id="Path_1756" data-name="Path 1756" d="M-23.3,1.345c-.039-.082-.161-.325-.2-.4-.188-2.31-.268-9.968-.377-11.045l.134-.3.223-.125a9.479,9.479,0,0,1,2.5,0c3.658,1.093,1.443,5.493.607,5.3.179.131.723.667.854.78a5.074,5.074,0,0,1,.391,3.972,2.141,2.141,0,0,1-1.9,1.691C-21.569,1.261-23.235,1.39-23.3,1.345ZM-20.8.158c.068-.039.136-.073.2-.107,1.05-.926.729-2.806.591-3.447-.1-.243-.4-1.361-1.416-1.24-.36.028-.683.012-1.044.059a2.083,2.083,0,0,0-.292.471c.016.068-.037,4.543.461,4.528A12.56,12.56,0,0,0-20.8.158C-20.731.119-21.114.229-20.8.158Zm-.717-5.725a1.815,1.815,0,0,0,.964-.671,2.723,2.723,0,0,0,.471-1.953c-.013-1.64-1.931-1.49-2.407-1.464-.307.017-.361.352-.4.455q.051,1.664.1,3.327a1.177,1.177,0,0,0,.357.347,2.363,2.363,0,0,0,.907-.041C-21.437-5.608-21.586-5.556-21.516-5.567Z" fill="#fff"/>
      </g>
      <g id="Group_3271" data-name="Group 3271">
        <path id="Path_1757" data-name="Path 1757" d="M-14.052,1.319a1.664,1.664,0,0,0-.425-.132C-17.042-.4-16.39-6.411-15.771-8.967c.03-.062.477-1.085.527-1.161a2.527,2.527,0,0,1,2.622-.593c2.619,1.552,2.69,10.238.068,11.9-.069,0-.135.014-.206.019a2.8,2.8,0,0,1-1.292.123C-14.123,1.292-13.981,1.326-14.052,1.319Zm1.979-2.568c.534-2.28.145-4.57.031-6.9a4.347,4.347,0,0,0-.772-1.588,3.548,3.548,0,0,0-.435-.173,1.944,1.944,0,0,1-.623-.013c-.123.059-.315.032-.379.152-1.124,2.113-1.21,7.25-.439,9.394.315.875,1.27.75,1.475.757C-12.625.328-12.172-.828-12.073-1.249Z" fill="#fff"/>
      </g>
      <g id="Group_3272" data-name="Group 3272">
        <path id="Path_1758" data-name="Path 1758" d="M.037,3.35c-.032-.109-.063-.219-.1-.324C-.041,2.6,0,2.177.008,1.748c-.034-.087-.062-.174-.1-.256L-.31,1.383c-.284-.082-6.5-.2-7.058-.226-.1-.027-.2-.062-.3-.089C-7.7.961-7.735.854-7.774.744c.077-1.437.126-10.551.091-11.079.027-.073.057-.146.086-.219.112-.055.228-.109.34-.167.124.048.244.1.365.139.05.078.094.148.142.226C-6.711-8.109-6.9-1.112-6.855-.132c.045.1.091.191.135.29A9.12,9.12,0,0,0-5.145.252,2.566,2.566,0,0,0-4.458.2c.045-.109.087-.217.132-.324,0-3.365.081-6.739.2-10.1.046-.082.087-.169.132-.251l.242-.183.2.021c.071.052.146.1.219.157,1.025,2.652.022,7.53-.116,10.445.032.08.059.162.091.24.086.06.171.119.258.176A5.83,5.83,0,0,1-1.314.426c.078-.048.157-.1.24-.144.074-4.126.2-7.938.451-10.389a1.689,1.689,0,0,1,.1-.306c.135-.05.265-.1.4-.155.109.078.221.155.331.23.039.1.07.194.1.292A96.419,96.419,0,0,0-.018,0c.034.084.069.171.1.256.068.063.135.127.2.194A1.766,1.766,0,0,1,.73.621C.762.726.8.829.831.933c0,.731-.169,1.442-.2,2.169-.048.093-.1.187-.146.282-.082.039-.164.074-.246.11C.169,3.446.1,3.4.037,3.35,0,3.241.1,3.4.037,3.35Z" fill="#fff"/>
      </g>
      <g id="Group_3273" data-name="Group 3273">
        <path id="Path_1759" data-name="Path 1759" d="M3.779,1.4c-.205-1.072.5-8.913.374-11.418.023-.087.043-.169.064-.253.078-.043.155-.084.233-.125.157.046.319.091.475.139.041.086.075.171.118.257C5.058-9.056,4.7-2.241,4.6.169A.193.193,0,0,0,4.655.137C5.4-1.57,7.521-8.841,7.98-9.8c.064-.075.131-.15.2-.228.09-.039.178-.082.264-.121h.646c.062.071.128.144.188.214s.086.165.127.247C9.268-7.649,8.689-.083,8.827,1.422c-.032.089-.061.176-.1.267a1.141,1.141,0,0,1-.471.06c-.068-.056-.131-.108-.2-.165-.04-.064-.075-.13-.11-.191a69.284,69.284,0,0,1,.5-9.348A3.13,3.13,0,0,1,8.5-8.74c-.022-.017-.047-.038-.069-.054A57.14,57.14,0,0,1,4.838,1.461c-.062.027-.132.059-.2.091l-.63-.014c-.082-.055-.155-.093-.233-.137C3.761,1.306,3.857,1.445,3.779,1.4Z" fill="#fff"/>
      </g>
      <g id="Group_3274" data-name="Group 3274">
        <path id="Path_1760" data-name="Path 1760" d="M20.8,2.38C18.836.3,20.322-8.207,21.815-9c.209-.11.424-.184.637-.283.388,0,.718,0,1.119.034.4.138.712.34,1.093.493l.185.187c.032.1.062.2.1.3-.025.1-.051.187-.068.283-.05.069-.1.137-.146.206l-.241.014c-.067-.023-.14-.048-.207-.073-.058-.057-.121-.114-.181-.169a5.168,5.168,0,0,0-.963-.347c-.186.042-.373.025-.559.05-.688.093-2.719,6.609-1.445,9.612a1.359,1.359,0,0,0,.676.607,4.4,4.4,0,0,0,1.689-.2c.062-.05.128-.1.193-.15.082,0,.162.014.244.022.061.078.123.148.186.224,0,.119-.014.237-.02.356-.067.105-.135.217-.2.322-.315.13-.633.258-.945.388-.171.018-.342.037-.516.052a3.226,3.226,0,0,1-1.3-.3C21.029,2.547,20.916,2.46,20.8,2.38Z" fill="#fff"/>
      </g>
      <g id="Group_3275" data-name="Group 3275">
        <path id="Path_1761" data-name="Path 1761" d="M27.066,3.118c-.034-.1-.064-.2-.094-.3.508-3.564.988-7.292,1.149-10.881.051-.137.1-.274.146-.411.074-.043.149-.086.229-.13a23.1,23.1,0,0,1,4.459.652c.021.091.05.178.079.269-.271,3.64-.872,6.93-1.264,11.07a.767.767,0,0,1-.108.226c-.08.023-.16.05-.242.073-.062-.007-.13-.014-.19-.023l-.25-.1c-.037-.084-.068-.169-.107-.251.04-.244,0-.488.027-.733.506-4.242.7-6.246,1.1-9.276-.015-.14-.034-.279-.051-.416-.077-.059-.154-.121-.237-.183a17.22,17.22,0,0,1-2.354-.278c-.088.045-.174.1-.258.144-.043.08-.082.158-.127.244-.074.6-.14,1.292-.191,1.907-.377,4.522-.71,5.665-.909,8.208l-.146.2c-.08.041-.162.078-.248.114-.061,0-.127,0-.188,0-.077-.043-.155-.086-.226-.129C27.032,3.022,27.137,3.161,27.066,3.118Z" fill="#fff"/>
      </g>
      <g id="Group_3276" data-name="Group 3276">
        <path id="Path_1762" data-name="Path 1762" d="M35.489,4.222c-1.02-.75.563-10.436,1.211-11.766.075-.032,3.864.025,3.864,1.023,0,.092-.114.144-.174.219-.951.237-1.9-.483-2.812-.068a9.027,9.027,0,0,0-.557,4.077c.783.485,1.85.011,2.588.587.019.1.156.409-.1.621C37.085.236,37.21-3.15,36.425,1.162c-.673,3.7.771,1.414,2.577,2.662a.646.646,0,0,1-.092.758A11.1,11.1,0,0,1,35.489,4.222Z" fill="#fff"/>
      </g>
      <g id="Group_3277" data-name="Group 3277">
        <path id="Path_1763" data-name="Path 1763" d="M46.65,7.8c-.026-.109-.055-.225-.084-.338.127-.4.137-.826.24-1.236-.035-.091-.025-.3-.287-.4-.313-.1-3.951-.623-4.1-.661-.067-.062-.14-.123-.205-.185-.028-.091-.051-.178-.071-.265a29.681,29.681,0,0,0,.479-3.279c.768-2.483.173-5.593,1.236-7.952l.221-.055c.161.048.322.1.482.142.031.084.061.171.09.255C44.378-2.808,43.761.6,43.191,3.935c.021.107.049.214.072.322.072.039.148.08.226.119a10.546,10.546,0,0,0,2.444.222c.049-.073.1-.146.146-.221.1-.73,1.043-7.551,1.572-10.032.021-.1.123-.167.18-.244.078-.023.152-.048.227-.071.075.014.15.022.228.039.08.05.155.105.233.158.016.093.027.187.041.28C48.068-2.174,47.3,1.211,47,4.544c.021.087.039.178.055.267a7.028,7.028,0,0,1,.6.42,6.147,6.147,0,0,1-.4,2.4,1.36,1.36,0,0,1-.4.348c-.071-.065-.139-.121-.205-.18C46.624,7.686,46.716,7.854,46.65,7.8Z" fill="#fff"/>
      </g>
      <g id="Group_3278" data-name="Group 3278">
        <path id="Path_1764" data-name="Path 1764" d="M50.59,6.349c-.143-3.693,1.539-7.607,1.8-11.286.032-.08.066-.162.1-.244.082-.032.162-.062.244-.1.15.069.3.135.455.2.029.094.054.183.082.274-.094.934-1.271,7.663-1.7,10.032l.062-.025A80.005,80.005,0,0,1,56.19-4.247c.072-.066.146-.132.225-.2.089-.027.18-.06.271-.091.217.03.436.057.648.086a1.19,1.19,0,0,1,.256.493c-.466,2.02-1.9,9.422-1.967,10.946-.044.082-.087.168-.13.251a1.043,1.043,0,0,1-.478,0c-.058-.064-.121-.124-.177-.188-.028-.066-.062-.137-.089-.2a40.909,40.909,0,0,1,1.807-9.975c-.022-.018-.041-.041-.062-.06a102.754,102.754,0,0,1-4.863,9.71c-.07.025-.14.05-.208.07C51.215,6.557,51,6.53,50.8,6.5c-.068-.049-.137-.1-.208-.149C50.586,6.248,50.661,6.4,50.59,6.349Z" fill="#fff"/>
      </g>
      <g id="Group_3279" data-name="Group 3279">
        <path id="Path_1765" data-name="Path 1765" d="M59.031,7.875c-.061-.993,1.841-8.737,2.05-11.236.039-.082.067-.162.1-.24.086-.032.168-.064.252-.091.146.071.3.139.451.21.025.091.051.183.073.274-.11.9-1.5,7.617-1.931,9.986a.3.3,0,0,1,.057-.023c.949-1.626,4.409-8.722,4.775-9.338.074-.066.148-.132.229-.2l.278-.08c.214.03.434.062.646.1a1.182,1.182,0,0,1,.244.5c-.484,2.007-2.136,9.378-2.213,10.9-.045.085-.089.171-.137.25-.078.007-.16.017-.242.025-.078-.015-.155-.022-.232-.036-.058-.059-.119-.124-.174-.191-.027-.062-.055-.133-.087-.2a87.7,87.7,0,0,1,2.036-9.931.568.568,0,0,1-.057-.064c-.92,1.378-2.691,6.663-5.092,9.6-.047.058-.143.041-.209.062-.211-.039-.416-.068-.629-.1a1.254,1.254,0,0,0-.191-.168C59.025,7.777,59.1,7.928,59.031,7.875Z" fill="#fff"/>
      </g>
    </g>
    <g id="Group_3282" data-name="Group 3282">
      <g id="Group_3281" data-name="Group 3281">
        <path id="Path_1766" data-name="Path 1766" d="M-58.23,32.016V23.733h4.354v1.6h-2.795v1.714h2.408v1.583h-2.408v1.761h2.795v1.632H-58.23Z" fill="#009345"/>
        <path id="Path_1767" data-name="Path 1767" d="M-46.572,29.562a2.5,2.5,0,0,1-.661,1.853,2.547,2.547,0,0,1-1.876.66,3.173,3.173,0,0,1-.854-.107,2.772,2.772,0,0,1-.688-.291,2.709,2.709,0,0,1-.554-.44,3.333,3.333,0,0,1-.44-.564l1.225-1.095a2.293,2.293,0,0,0,.607.666,1.263,1.263,0,0,0,.726.214.833.833,0,0,0,.683-.236.919.919,0,0,0,.188-.584.789.789,0,0,0-.1-.41,1.047,1.047,0,0,0-.28-.305,1.933,1.933,0,0,0-.414-.227c-.158-.062-.33-.122-.516-.178a4.489,4.489,0,0,1-.882-.4,2.334,2.334,0,0,1-.6-.514,1.827,1.827,0,0,1-.338-.654,2.988,2.988,0,0,1-.107-.832,2.688,2.688,0,0,1,.172-.981,2.313,2.313,0,0,1,.484-.774,2.158,2.158,0,0,1,.747-.506,2.551,2.551,0,0,1,.962-.178,2.953,2.953,0,0,1,1.393.291,2.533,2.533,0,0,1,.919.863L-47.893,26a1.51,1.51,0,0,0-1.193-.7.8.8,0,0,0-.564.2.692.692,0,0,0-.221.535.526.526,0,0,0,.107.322,1.134,1.134,0,0,0,.291.262,3.1,3.1,0,0,0,.43.226q.248.108.526.2a4.175,4.175,0,0,1,.936.435,2.213,2.213,0,0,1,.6.56,1.992,1.992,0,0,1,.317.7A3.544,3.544,0,0,1-46.572,29.562Z" fill="#009345"/>
        <path id="Path_1768" data-name="Path 1768" d="M-41.417,25.3v6.713h-1.548V25.3h-1.6v-1.57h4.751V25.3Z" fill="#009345"/>
        <path id="Path_1769" data-name="Path 1769" d="M-38.207,32.016V30.135h1.634v1.881Z" fill="#009345"/>
      </g>
    </g>
    <g id="Group_3284" data-name="Group 3284">
      <g id="Group_3283" data-name="Group 3283">
        <path id="Path_1770" data-name="Path 1770" d="M13.305,26.029a3.2,3.2,0,0,1,.209-1.012,2.239,2.239,0,0,1,.463-.738,1.907,1.907,0,0,1,.655-.452,2.023,2.023,0,0,1,.779-.154,2.076,2.076,0,0,1,1.554.565,2.244,2.244,0,0,1,.555,1.636,3.273,3.273,0,0,1-.125.929,3.848,3.848,0,0,1-.371.846l-1.74,2.762h2.183v1.6H13.349V30.565l2.42-3.785a1.355,1.355,0,0,0,.16-.4,2.036,2.036,0,0,0,.043-.43.89.89,0,0,0-.134-.469.454.454,0,0,0-.414-.221.547.547,0,0,0-.407.215,1.328,1.328,0,0,0-.228.8Z" fill="#009345"/>
        <path id="Path_1771" data-name="Path 1771" d="M24.206,29.885a2.433,2.433,0,0,1-.167.93,2.078,2.078,0,0,1-.446.685,1.929,1.929,0,0,1-.649.429,2.1,2.1,0,0,1-.791.148,2.188,2.188,0,0,1-.8-.148A1.9,1.9,0,0,1,20.7,31.5a2.078,2.078,0,0,1-.446-.685,2.433,2.433,0,0,1-.167-.93V25.874a2.478,2.478,0,0,1,.167-.935,2.012,2.012,0,0,1,.451-.689,1.981,1.981,0,0,1,.656-.43,2.08,2.08,0,0,1,.789-.147,2.2,2.2,0,0,1,.8.147,1.9,1.9,0,0,1,.654.43,1.99,1.99,0,0,1,.441.689,2.553,2.553,0,0,1,.161.935Zm-1.5-4.011a.633.633,0,0,0-.156-.464.528.528,0,0,0-.393-.154.546.546,0,0,0-.4.154.627.627,0,0,0-.155.464v4a.638.638,0,0,0,.155.465.542.542,0,0,0,.4.154.55.55,0,0,0,.393-.154.63.63,0,0,0,.156-.465Z" fill="#009345"/>
        <path id="Path_1772" data-name="Path 1772" d="M28.137,32.016V25.66l-1.054.855V24.706l1.2-.977h1.354v8.283h-1.5Z" fill="#009345"/>
        <path id="Path_1773" data-name="Path 1773" d="M36.02,27.719a2.143,2.143,0,0,1,.451.436,1.685,1.685,0,0,1,.241.464,2.207,2.207,0,0,1,.1.506c.015.175.021.356.021.548a3.088,3.088,0,0,1-.15.982,2.163,2.163,0,0,1-.436.762,1.892,1.892,0,0,1-.7.486,2.394,2.394,0,0,1-.93.174,2.435,2.435,0,0,1-.812-.131,1.826,1.826,0,0,1-.656-.4,2.046,2.046,0,0,1-.457-.695,3.389,3.389,0,0,1-.215-1.007l1.483-.215a1.317,1.317,0,0,0,.06.429.811.811,0,0,0,.15.268.473.473,0,0,0,.2.138.72.72,0,0,0,.231.036.589.589,0,0,0,.439-.2,1.018,1.018,0,0,0,.193-.7,1.812,1.812,0,0,0-.166-.881.651.651,0,0,0-.618-.286h-.483V27.069h.537a.635.635,0,0,0,.575-.25,1.208,1.208,0,0,0,.166-.678,1.49,1.49,0,0,0-.032-.3.952.952,0,0,0-.1-.28.652.652,0,0,0-.184-.207.439.439,0,0,0-.273-.084.569.569,0,0,0-.393.18,1.15,1.15,0,0,0-.23.736l-1.463-.25a2.839,2.839,0,0,1,.236-.957,2.507,2.507,0,0,1,.479-.715,1.9,1.9,0,0,1,.65-.439,2.018,2.018,0,0,1,.773-.148,2.218,2.218,0,0,1,1.043.215,1.747,1.747,0,0,1,.641.553,2.139,2.139,0,0,1,.322.769,4.085,4.085,0,0,1,.092.856,2.823,2.823,0,0,1-.043.459,2.275,2.275,0,0,1-.141.476,1.734,1.734,0,0,1-.248.423A1.067,1.067,0,0,1,36.02,27.719Z" fill="#009345"/>
      </g>
    </g>
  </g>
</svg>
