<svg xmlns="http://www.w3.org/2000/svg" width="492.8" height="180" viewBox="0 0 492.8 180">
  <g id="Group_3563" data-name="Group 3563" transform="translate(-714 -270)">
    <g id="Group_3563-2" data-name="Group 3563" transform="translate(1070 303)">
      <g id="Path_10818" data-name="Path 10818">
        <path id="Path_10822" data-name="Path 10822" d="M133.3,114.1H110.5v29.4H78.9V114.1H3.5V92.3l66-88.8h34L42.3,87.7H79.9V61.5h30.6V87.7h22.8Z" fill="#f08f27"/>
      </g>
      <g id="Path_10819" data-name="Path 10819">
        <path id="Path_10823" data-name="Path 10823" d="M110.5,147H78.9a3.5,3.5,0,0,1-3.5-3.5V117.6H3.5A3.5,3.5,0,0,1,0,114.1V92.3a3.5,3.5,0,0,1,.691-2.088l66-88.8A3.5,3.5,0,0,1,69.5,0h34a3.5,3.5,0,0,1,2.831,5.558L49.17,84.2H76.4V61.5A3.5,3.5,0,0,1,79.9,58h30.6a3.5,3.5,0,0,1,3.5,3.5V84.2h19.3a3.5,3.5,0,0,1,3.5,3.5v26.4a3.5,3.5,0,0,1-3.5,3.5H114v25.9A3.5,3.5,0,0,1,110.5,147Zm-28.1-7H107V114.1a3.5,3.5,0,0,1,3.5-3.5h19.3V91.2H110.5a3.5,3.5,0,0,1-3.5-3.5V65H83.4V87.7a3.5,3.5,0,0,1-3.5,3.5H42.3a3.5,3.5,0,0,1-2.831-5.557L96.629,7H71.26L7,93.458V110.6H78.9a3.5,3.5,0,0,1,3.5,3.5Z" fill="#c95528"/>
      </g>
    </g>
    <g id="Group_3563-3" data-name="Group 3563" transform="translate(714 303)">
      <g id="Path_10818-2" data-name="Path 10818">
        <path id="Path_10822-2" data-name="Path 10822" d="M133.3,114.1H110.5v29.4H78.9V114.1H3.5V92.3l66-88.8h34L42.3,87.7H79.9V61.5h30.6V87.7h22.8Z" fill="#f08f27"/>
      </g>
      <g id="Path_10819-2" data-name="Path 10819">
        <path id="Path_10823-2" data-name="Path 10823" d="M110.5,147H78.9a3.5,3.5,0,0,1-3.5-3.5V117.6H3.5A3.5,3.5,0,0,1,0,114.1V92.3a3.5,3.5,0,0,1,.691-2.088l66-88.8A3.5,3.5,0,0,1,69.5,0h34a3.5,3.5,0,0,1,2.831,5.558L49.17,84.2H76.4V61.5A3.5,3.5,0,0,1,79.9,58h30.6a3.5,3.5,0,0,1,3.5,3.5V84.2h19.3a3.5,3.5,0,0,1,3.5,3.5v26.4a3.5,3.5,0,0,1-3.5,3.5H114v25.9A3.5,3.5,0,0,1,110.5,147Zm-28.1-7H107V114.1a3.5,3.5,0,0,1,3.5-3.5h19.3V91.2H110.5a3.5,3.5,0,0,1-3.5-3.5V65H83.4V87.7a3.5,3.5,0,0,1-3.5,3.5H42.3a3.5,3.5,0,0,1-2.831-5.557L96.629,7H71.26L7,93.458V110.6H78.9a3.5,3.5,0,0,1,3.5,3.5Z" fill="#c95528"/>
      </g>
    </g>
    <g id="Group_3562" data-name="Group 3562" transform="translate(-141.614 249.973)">
      <path id="Path_10787" data-name="Path 10787" d="M1139.053,47.659s-16.874-4.557-28.008.682a78.963,78.963,0,0,0-23.073,32.969,84.505,84.505,0,0,0-4.265-13.81c0-.01-9.653-30.294-46.911-21.219,0,0-15.525,8.042-20.172,19.434,0,0-5.448,29.857,14.991,57.1,0,0,22.238,31.9,55.617,48.839,0,0,.466-2.656,1.089-7.147.91,3.214,1.9,6.429,3.09,9.613,0,0,54.154-41.524,67.848-79.122C1159.259,95,1172.625,66.148,1139.053,47.659Z" transform="translate(13.33 24.521)" fill="#f08f27"/>
      <g id="Group_3489" data-name="Group 3489" transform="translate(1031.838 75.701)">
        <path id="Path_10788" data-name="Path 10788" d="M1042.117,83.707a2.933,2.933,0,0,0,1.233-.274c3.074-1.239,12.015-4.463,16.41-4.613a3.289,3.289,0,0,0-.106-6.577h-.1c-6.353.2-17.425,4.575-18.668,5.082a3.311,3.311,0,0,0,1.233,6.381Z" transform="translate(-995.692 -23.559)" fill="#fff"/>
        <path id="Path_10789" data-name="Path 10789" d="M1107.771,60.215c4.708.594,9.357,1.719,11.39,3.609a3.317,3.317,0,0,0,4.661-.16,3.337,3.337,0,0,0-.19-4.689c-2.57-2.382-6.739-3.8-10.944-4.641.4-.416.689-.7.7-.7a3.3,3.3,0,0,0-4.427-4.907,47.637,47.637,0,0,0-4.169,4.567c-3.076-.228-5.434-.218-6.068-.21a3.3,3.3,0,0,0,.046,6.607c.028,0,.048,0,.048-.01.387-.008.839.01,1.267.01a95.887,95.887,0,0,0-8.934,17.164,115.041,115.041,0,0,0-7.8,35.315c-.977,14.8.633,30.622,4.616,47.033-38.609-24.319-53.446-49.945-58.044-59.887-.546-1.193-1.036-2.374-1.495-3.543,4.491-2.724,14.848-8.65,21.269-10.021a3.307,3.307,0,0,0-1.393-6.465c-6.805,1.475-16.676,6.929-21.971,10.039a71.058,71.058,0,0,1-2.288-23.7,3.3,3.3,0,0,0-6.549-.767,76.052,76.052,0,0,0,6.433,37.214c4.625,10.037,12,20.651,21.3,30.708a193.982,193.982,0,0,0,40.327,32.743,3.137,3.137,0,0,0,1.733.5,3.256,3.256,0,0,0,2.816-1.579,2.388,2.388,0,0,0,.142-.378,3.143,3.143,0,0,0,1.515.426,3.215,3.215,0,0,0,.842-.1,3.3,3.3,0,0,0,2.358-4.007c-9.723-37.609-4.191-64.624,2.155-80.683A87.7,87.7,0,0,1,1107.771,60.215Z" transform="translate(-1017.237 -47.884)" fill="#fff"/>
        <path id="Path_10790" data-name="Path 10790" d="M1086.991,92.314c-4.882-6.174-15.631-10.86-16.093-11.06a3.3,3.3,0,0,0-2.618,6.05c2.674,1.173,10.321,5.066,13.5,9.122a3.347,3.347,0,0,0,2.606,1.267,3.338,3.338,0,0,0,2.608-5.378Z" transform="translate(-968.256 -14.831)" fill="#fff"/>
      </g>
      <path id="Path_10791" data-name="Path 10791" d="M1160.319,58.859c-12.447-17.316-31.712-16.051-32.509-16.011a3.3,3.3,0,1,0,.482,6.577A32.047,32.047,0,0,1,1154.94,62.7c11.67,16.238,7.845,34.717-12.033,58.149-3.675,4.349-7.225,8.262-10.688,11.957a30.3,30.3,0,0,0-15.063-8.3,3.3,3.3,0,0,0-1.171,6.5,23.9,23.9,0,0,1,11.644,6.6,358.056,358.056,0,0,1-31.12,27.984c-.892.721-1.753,1.449-2.606,2.138a184,184,0,0,1-6.142-40.681c-.706-22.364,3.36-41.127,11.9-56.258,4.371.094,15.327.793,23.328,5.264a3.3,3.3,0,0,0,3.214-5.758c-7.419-4.147-16.588-5.51-22.538-5.936a73.781,73.781,0,0,1,11.266-12.787,3.307,3.307,0,0,0-4.4-4.934,80.416,80.416,0,0,0-15.655,19.13,2.861,2.861,0,0,0-.34.586c-1.335,2.3-2.592,4.661-3.731,7.119-3.328-9.783-8.342-17.308-14.947-22.336a40.75,40.75,0,0,0-31.194-7.477,37.684,37.684,0,0,0-20.8,11.124,3.292,3.292,0,1,0,4.875,4.425,31.482,31.482,0,0,1,17.122-9.074,34.023,34.023,0,0,1,25.99,6.23c6.376,4.857,11.06,12.645,13.906,23.166.326,1.125.608,2.3.876,3.47a2.846,2.846,0,0,0,.222.548c-.226.692-.484,1.351-.7,2.051a116.3,116.3,0,0,0-4.339,22.978c-8.522.869-17.591,5.69-18.011,5.918a3.3,3.3,0,0,0,1.571,6.2,3.506,3.506,0,0,0,1.561-.388c.086-.048,7.512-4,14.356-5.038-.184,3.959-.232,7.994-.1,12.153a187.283,187.283,0,0,0,5.9,40.361,169.058,169.058,0,0,1-17.122-10.576c-3.172-2.372-6.3-4.887-9.287-7.467-1.791-1.551-3.462-3.188-5.24-4.9-1.119-1.077-2.27-2.174-3.446-3.28a109.85,109.85,0,0,1-13.876-16.276,106.709,106.709,0,0,1-8.934-14.612,86.922,86.922,0,0,1,28.634-15.237,3.3,3.3,0,0,0-1.973-6.3,93.213,93.213,0,0,0-29.415,15.293,85.642,85.642,0,0,1-4.563-14.32c-1.245-5.738-1.219-11.57-1.2-17.779V69.8a3.3,3.3,0,1,0-6.593-.01c0,.861-.01,1.683-.01,2.524-.024,6.258-.056,12.769,1.347,19.188a92.972,92.972,0,0,0,6.152,18.591c.138.312.314.634.458.945v.01a111.965,111.965,0,0,0,10.74,18.109,114.7,114.7,0,0,0,14.76,17.26c1.107,1.039,2.234,2.118,3.323,3.176,1.763,1.7,3.588,3.442,5.518,5.122,3.1,2.7,6.359,5.314,9.659,7.78,6.324,4.735,15.879,9.981,22.846,13.808l1.025.568a3.3,3.3,0,0,0,1.579.406,3.189,3.189,0,0,0,2.086-.889,3.258,3.258,0,0,0,.739-.416c1.961-1.653,4.1-3.42,6.4-5.31,11.881-9.727,28.172-23.072,47.25-45.6C1169.812,99.352,1173.833,77.685,1160.319,58.859Z" transform="translate(11.421 22.754)" fill="#c95528"/>
      <g id="Group_3490" data-name="Group 3490" transform="translate(1139.175 20.027)">
        <path id="Path_10792" data-name="Path 10792" d="M1103.127,53.9c.637-3.242,3.378-7.77,5.188-12.989.222-.642.486-1.4.732-2.21,8.35-23.413-8.074-15.669-15.7-.5-1.555,2.806-2.856,5.4-4.471,8.174A48.089,48.089,0,0,0,1086.939,38c-6.452-21.838-18.319-25.9-15.595-.294a72.378,72.378,0,0,0,5.094,20.539c10.483,1.105,19.5,5.34,27.552,11.836,9.074-2.856,18.97-8.422,24.295-13.442,1.793-1.693,5.96-5.746,4.373-8.742C1129.8,42.509,1109.331,50.072,1103.127,53.9Z" transform="translate(-1070.944 -20.027)" fill="#019547"/>
      </g>
      <g id="Group_3491" data-name="Group 3491" transform="translate(1002.616 20.027)">
        <path id="Path_10793" data-name="Path 10793" d="M1032.5,53.9c-.637-3.242-3.377-7.77-5.188-12.989-.222-.642-.486-1.4-.731-2.21-8.35-23.413,8.074-15.669,15.7-.5,1.555,2.806,2.856,5.4,4.471,8.174A48.08,48.08,0,0,1,1048.689,38c6.451-21.838,18.319-25.9,15.595-.294a72.387,72.387,0,0,1-5.095,20.539c-10.482,1.105-19.5,5.34-27.552,11.836-9.074-2.856-18.97-8.422-24.295-13.442-1.793-1.693-5.96-5.746-4.373-8.742C1005.824,42.509,1026.3,50.072,1032.5,53.9Z" transform="translate(-1002.616 -20.027)" fill="#019547"/>
      </g>
    </g>
  </g>
</svg>
