<svg xmlns="http://www.w3.org/2000/svg" width="44.704" height="36.57" viewBox="0 0 44.704 36.57">
  <g id="Group_3496" data-name="Group 3496" transform="translate(-200 -448)">
    <path id="Path_1725" data-name="Path 1725" d="M.193,21.3s-3.8-1.027-6.31.153a17.788,17.788,0,0,0-5.2,7.43,19.058,19.058,0,0,0-.961-3.112s-2.175-6.827-10.57-4.781c0,0-3.5,1.811-4.544,4.379a17.837,17.837,0,0,0,3.378,12.865s5.01,7.186,12.53,11c0,0,.1-.6.245-1.609.2.724.428,1.447.7,2.164,0,0,12.2-9.355,15.286-17.826C4.747,31.968,7.757,25.469.193,21.3Z" transform="translate(233.501 434.465)" fill="#aaa"/>
    <g id="Group_3242" data-name="Group 3242" transform="translate(206.535 456.559)">
      <path id="Path_1726" data-name="Path 1726" d="M-17.358,34.616a.676.676,0,0,0,.278-.062,15.453,15.453,0,0,1,3.7-1.039.746.746,0,0,0,.72-.764.741.741,0,0,0-.744-.719h-.023a16.6,16.6,0,0,0-4.206,1.146.747.747,0,0,0-.412.968A.745.745,0,0,0-17.358,34.616Z" transform="translate(27.818 -21.064)" fill="#fff"/>
      <path id="Path_1727" data-name="Path 1727" d="M-6.615,24.751a5.235,5.235,0,0,1,2.567.813.733.733,0,0,0,.507.2A.735.735,0,0,0-3,25.529a.752.752,0,0,0-.043-1.057,5.231,5.231,0,0,0-2.466-1.046c.09-.094.156-.158.159-.159A.746.746,0,0,0-5.3,22.219a.744.744,0,0,0-1.05-.056,10.62,10.62,0,0,0-.94,1.027c-.692-.05-1.224-.048-1.366-.046a.749.749,0,0,0-.736.757.747.747,0,0,0,.747.731c.005,0,.01,0,.01,0,.087,0,.19,0,.286,0A21.579,21.579,0,0,0-10.359,28.5a25.9,25.9,0,0,0-1.757,7.956,35.261,35.261,0,0,0,1.04,10.6c-8.7-5.48-12.042-11.252-13.077-13.493-.123-.268-.233-.534-.337-.8A20.451,20.451,0,0,1-19.7,30.5a.749.749,0,0,0,.569-.888.746.746,0,0,0-.883-.568,20.753,20.753,0,0,0-4.95,2.261,16.01,16.01,0,0,1-.516-5.338.746.746,0,0,0-.653-.823.747.747,0,0,0-.822.651A17.13,17.13,0,0,0-25.5,34.181a27.439,27.439,0,0,0,4.8,6.92,43.69,43.69,0,0,0,9.086,7.376.7.7,0,0,0,.39.113.734.734,0,0,0,.635-.357.538.538,0,0,0,.032-.085.721.721,0,0,0,.341.1.758.758,0,0,0,.19-.023.744.744,0,0,0,.532-.9c-2.192-8.473-.945-14.56.485-18.178A19.635,19.635,0,0,1-6.615,24.751Z" transform="translate(27.013 -21.973)" fill="#fff"/>
      <path id="Path_1728" data-name="Path 1728" d="M-2.092,38.2A11.053,11.053,0,0,0-5.717,35.7a.739.739,0,0,0-.976.384.742.742,0,0,0,.386.979A9.453,9.453,0,0,1-3.266,39.12a.753.753,0,0,0,.587.286.75.75,0,0,0,.461-.164A.745.745,0,0,0-2.092,38.2Z" transform="translate(28.843 -20.738)" fill="#fff"/>
    </g>
    <path id="Path_1729" data-name="Path 1729" d="M4.626,23.495A8.709,8.709,0,0,0-2.7,19.886a.743.743,0,0,0-.689.8.737.737,0,0,0,.8.685,7.223,7.223,0,0,1,6,2.991C6.044,28.016,5.182,32.18.7,37.46c-.83.979-1.629,1.861-2.41,2.694A6.824,6.824,0,0,0-5.1,38.284a.749.749,0,0,0-.861.6.746.746,0,0,0,.6.865,5.373,5.373,0,0,1,2.623,1.486A80.784,80.784,0,0,1-9.75,47.541c-.2.161-.4.325-.588.481a41.429,41.429,0,0,1-1.384-9.165,23.9,23.9,0,0,1,2.68-12.675,12.287,12.287,0,0,1,5.255,1.186.725.725,0,0,0,.365.1.734.734,0,0,0,.642-.383.742.742,0,0,0-.283-1.012A12.731,12.731,0,0,0-8.14,24.732,16.713,16.713,0,0,1-5.6,21.853.748.748,0,0,0-5.543,20.8a.75.75,0,0,0-1.05-.061,18.181,18.181,0,0,0-3.527,4.31.66.66,0,0,0-.076.132c-.3.519-.584,1.05-.841,1.6a10.3,10.3,0,0,0-3.368-5.031,9.18,9.18,0,0,0-7.028-1.685,8.488,8.488,0,0,0-4.686,2.507.745.745,0,0,0,.048,1.05.745.745,0,0,0,1.05-.053,7.091,7.091,0,0,1,3.858-2.044,7.664,7.664,0,0,1,5.856,1.4,9.421,9.421,0,0,1,3.133,5.218c.073.254.137.519.2.783a.678.678,0,0,0,.05.123c-.051.156-.109.3-.157.462a26.153,26.153,0,0,0-.978,5.177,12.8,12.8,0,0,0-4.058,1.333.748.748,0,0,0-.3,1.009.749.749,0,0,0,.655.388.777.777,0,0,0,.351-.087A11.98,11.98,0,0,1-13.181,36.2c-.041.891-.052,1.8-.022,2.738a42.214,42.214,0,0,0,1.329,9.093,38,38,0,0,1-3.858-2.382c-.714-.534-1.419-1.1-2.092-1.682-.4-.349-.78-.717-1.181-1.1-.252-.241-.511-.488-.776-.739a24.638,24.638,0,0,1-3.126-3.667,23.917,23.917,0,0,1-2.013-3.292,19.613,19.613,0,0,1,6.451-3.433.741.741,0,0,0,.486-.928.744.744,0,0,0-.931-.491,20.981,20.981,0,0,0-6.627,3.448,19.341,19.341,0,0,1-1.028-3.227,18.511,18.511,0,0,1-.27-4.006v-.572a.748.748,0,0,0-.744-.748.745.745,0,0,0-.741.746c0,.193,0,.378,0,.568a19.724,19.724,0,0,0,.3,4.323,21,21,0,0,0,1.386,4.19c.032.069.071.142.1.212v0a25.237,25.237,0,0,0,2.419,4.08,25.829,25.829,0,0,0,3.325,3.888c.25.234.5.478.749.717.4.382.808.775,1.243,1.152.7.61,1.433,1.2,2.176,1.754a48.367,48.367,0,0,0,5.147,3.11l.231.128a.735.735,0,0,0,.355.092.726.726,0,0,0,.47-.2.787.787,0,0,0,.167-.094c.44-.373.925-.771,1.443-1.2A75.086,75.086,0,0,0,1.839,38.409C6.765,32.616,7.671,27.735,4.626,23.495Z" transform="translate(233.429 434.399)" fill="#373a48"/>
    <g id="Group_3261" data-name="Group 3261" transform="translate(200 448.024)">
      <path id="Path_1747" data-name="Path 1747" d="M-22.641,14.213a10.822,10.822,0,0,0-.423,1.842c-.352-.609-.639-1.18-.976-1.8-1.183.038-2.367.07-3.547.111.053.166.1.326.15.456.409,1.178,1.024,2.192,1.167,2.924-1.4-.867-6.011-2.564-6.658-1.348-.36.672.583,1.588.983,1.968A15.719,15.719,0,0,0-26.469,21.4a11.554,11.554,0,0,1,6.208-2.664,16.266,16.266,0,0,0,1.143-4.589C-20.295,14.158-21.469,14.183-22.641,14.213Z" transform="translate(33.008 -14.144)" fill="#676767"/>
    </g>
    <g id="Group_3262" data-name="Group 3262" transform="translate(230.81 448)">
      <path id="Path_1748" data-name="Path 1748" d="M2.41,17.769c.144-.731.761-1.75,1.169-2.926.05-.143.11-.314.165-.5-1.18-.047-2.356-.079-3.536-.111-.351.632-.644,1.218-1.007,1.842a10.8,10.8,0,0,0-.437-1.886c-1.17-.028-2.341-.045-3.513-.067A16.317,16.317,0,0,0-3.6,18.749,11.683,11.683,0,0,1,2.6,21.415a15.716,15.716,0,0,0,5.475-3.028c.4-.382,1.343-1.3.985-1.97C8.421,15.2,3.808,16.908,2.41,17.769Z" transform="translate(4.75 -14.122)" fill="#676767"/>
    </g>
  </g>
</svg>
