<svg id="Group_3606" data-name="Group 3606" xmlns="http://www.w3.org/2000/svg" width="36.575" height="29.921" viewBox="0 0 36.575 29.921">
  <path id="Path_1725" data-name="Path 1725" d="M-4.849,21.176s-3.111-.84-5.162.125a14.554,14.554,0,0,0-4.253,6.079,15.593,15.593,0,0,0-.786-2.546s-1.78-5.585-8.648-3.912c0,0-2.862,1.482-3.718,3.583A14.594,14.594,0,0,0-24.653,35.03a31.742,31.742,0,0,0,10.252,9s.086-.489.2-1.317c.168.592.351,1.184.57,1.771,0,0,9.982-7.654,12.507-14.585C-1.124,29.9,1.34,24.585-4.849,21.176Z" transform="translate(32.417 -14.822)" fill="#f08f27"/>
  <g id="Group_3242" data-name="Group 3242" transform="translate(5.347 7.003)">
    <path id="Path_1726" data-name="Path 1726" d="M-17.494,34.146a.553.553,0,0,0,.227-.051,12.643,12.643,0,0,1,3.025-.85.611.611,0,0,0,.589-.625.606.606,0,0,0-.608-.588h-.019a13.578,13.578,0,0,0-3.442.938.611.611,0,0,0-.337.792A.609.609,0,0,0-17.494,34.146Z" transform="translate(26.051 -23.059)" fill="#fff"/>
    <path id="Path_1727" data-name="Path 1727" d="M-10.324,24.246a4.283,4.283,0,0,1,2.1.665.6.6,0,0,0,.415.161.6.6,0,0,0,.443-.191.615.615,0,0,0-.035-.864,4.28,4.28,0,0,0-2.018-.856c.074-.077.128-.129.13-.13a.61.61,0,0,0,.043-.857.608.608,0,0,0-.859-.045,8.689,8.689,0,0,0-.769.84c-.566-.041-1-.039-1.118-.037a.612.612,0,0,0-.6.619.611.611,0,0,0,.611.6s.008,0,.008,0c.071,0,.155,0,.234,0a17.655,17.655,0,0,0-1.647,3.165,21.189,21.189,0,0,0-1.437,6.51,28.85,28.85,0,0,0,.851,8.67c-7.117-4.484-9.852-9.206-10.7-11.039-.1-.219-.191-.437-.276-.655a16.733,16.733,0,0,1,3.921-1.847.612.612,0,0,0,.466-.726.61.61,0,0,0-.723-.465,16.98,16.98,0,0,0-4.05,1.85,13.1,13.1,0,0,1-.422-4.368.61.61,0,0,0-.534-.674.612.612,0,0,0-.673.533,14.015,14.015,0,0,0,1.186,6.858,22.45,22.45,0,0,0,3.928,5.662,35.746,35.746,0,0,0,7.434,6.035.571.571,0,0,0,.319.093.6.6,0,0,0,.519-.292.44.44,0,0,0,.026-.07.59.59,0,0,0,.279.079.62.62,0,0,0,.155-.019.609.609,0,0,0,.435-.739c-1.793-6.932-.773-11.913.4-14.873A16.065,16.065,0,0,1-10.324,24.246Z" transform="translate(27.013 -21.973)" fill="#fff"/>
    <path id="Path_1728" data-name="Path 1728" d="M-2.94,37.731a9.044,9.044,0,0,0-2.966-2.038.6.6,0,0,0-.8.314.607.607,0,0,0,.316.8A7.734,7.734,0,0,1-3.9,38.488a.616.616,0,0,0,.48.234.614.614,0,0,0,.377-.134A.609.609,0,0,0-2.94,37.731Z" transform="translate(24.827 -23.448)" fill="#fff"/>
  </g>
  <path id="Path_1729" data-name="Path 1729" d="M-1.366,22.837a7.126,7.126,0,0,0-5.993-2.953.608.608,0,0,0-.564.652.6.6,0,0,0,.653.56,5.91,5.91,0,0,1,4.912,2.447c2.152,2.993,1.447,6.4-2.217,10.719-.679.8-1.333,1.523-1.971,2.2a5.583,5.583,0,0,0-2.776-1.53.613.613,0,0,0-.7.492.61.61,0,0,0,.489.707,4.4,4.4,0,0,1,2.146,1.216,66.1,66.1,0,0,1-5.736,5.159c-.165.132-.324.266-.481.393a33.9,33.9,0,0,1-1.132-7.5,19.554,19.554,0,0,1,2.193-10.37,10.053,10.053,0,0,1,4.3.971.593.593,0,0,0,.3.079.6.6,0,0,0,.525-.313.607.607,0,0,0-.232-.828A10.416,10.416,0,0,0-11.81,23.85a13.674,13.674,0,0,1,2.077-2.356.612.612,0,0,0,.047-.861.614.614,0,0,0-.859-.05,14.875,14.875,0,0,0-2.886,3.526.54.54,0,0,0-.062.108c-.246.425-.478.859-.688,1.312a8.425,8.425,0,0,0-2.756-4.116,7.511,7.511,0,0,0-5.75-1.378,6.944,6.944,0,0,0-3.834,2.051.61.61,0,0,0,.039.859.61.61,0,0,0,.859-.044,5.8,5.8,0,0,1,3.156-1.673,6.271,6.271,0,0,1,4.791,1.148,7.708,7.708,0,0,1,2.563,4.269c.06.208.112.425.161.641a.555.555,0,0,0,.041.1c-.042.128-.089.248-.128.378a21.4,21.4,0,0,0-.8,4.236,10.476,10.476,0,0,0-3.32,1.091.612.612,0,0,0-.246.825.613.613,0,0,0,.536.318.636.636,0,0,0,.287-.071,9.8,9.8,0,0,1,2.647-.929c-.034.729-.043,1.474-.018,2.24a34.538,34.538,0,0,0,1.087,7.44,31.088,31.088,0,0,1-3.156-1.949c-.584-.437-1.161-.9-1.712-1.376-.33-.285-.638-.587-.966-.9-.206-.2-.418-.4-.635-.6a20.157,20.157,0,0,1-2.558-3,19.568,19.568,0,0,1-1.647-2.693,16.047,16.047,0,0,1,5.278-2.809.607.607,0,0,0,.4-.759.609.609,0,0,0-.762-.4,17.166,17.166,0,0,0-5.422,2.821,15.824,15.824,0,0,1-.841-2.641,15.145,15.145,0,0,1-.221-3.278v-.468a.612.612,0,0,0-.608-.612.609.609,0,0,0-.607.61c0,.158,0,.31,0,.465a16.137,16.137,0,0,0,.248,3.537,17.183,17.183,0,0,0,1.134,3.428c.026.056.058.116.085.173v0a20.649,20.649,0,0,0,1.98,3.338,21.133,21.133,0,0,0,2.721,3.181c.2.192.412.391.613.587.325.312.661.634,1.017.943.572.5,1.172.98,1.781,1.435a39.573,39.573,0,0,0,4.212,2.544l.189.1a.6.6,0,0,0,.291.075.594.594,0,0,0,.384-.162.644.644,0,0,0,.136-.077c.36-.305.756-.631,1.18-.98a61.434,61.434,0,0,0,8.71-8.4C.385,30.3,1.126,26.306-1.366,22.837Z" transform="translate(32.502 -14.743)" fill="#c95528"/>
  <g id="Group_3261" data-name="Group 3261" transform="translate(0 0.02)">
    <path id="Path_1747" data-name="Path 1747" d="M-24.526,14.2a8.854,8.854,0,0,0-.346,1.507c-.288-.5-.523-.965-.8-1.47-.968.031-1.937.057-2.9.091.044.136.086.267.123.373.335.963.838,1.793.955,2.393-1.145-.709-4.918-2.1-5.447-1.1-.294.55.477,1.3.8,1.61a12.861,12.861,0,0,0,4.479,2.477,9.453,9.453,0,0,1,5.08-2.179,13.308,13.308,0,0,0,.935-3.755C-22.606,14.156-23.567,14.176-24.526,14.2Z" transform="translate(33.008 -14.144)" fill="#019547"/>
  </g>
  <g id="Group_3262" data-name="Group 3262" transform="translate(25.208 0)">
    <path id="Path_1748" data-name="Path 1748" d="M1.108,17.106c.118-.6.623-1.432.956-2.394.041-.117.09-.257.135-.408-.965-.038-1.928-.064-2.893-.091-.287.517-.527,1-.824,1.507a8.833,8.833,0,0,0-.358-1.543c-.957-.023-1.915-.037-2.874-.054a13.35,13.35,0,0,0,.938,3.786,9.559,9.559,0,0,1,5.079,2.181,12.859,12.859,0,0,0,4.479-2.477c.33-.312,1.1-1.06.806-1.612C6.026,15.008,2.252,16.4,1.108,17.106Z" transform="translate(4.75 -14.122)" fill="#019547"/>
  </g>
</svg>
