<svg xmlns="http://www.w3.org/2000/svg" width="220.002" height="36.57" viewBox="0 0 220.002 36.57">
  <g id="Group_3333" data-name="Group 3333" transform="translate(18576.41 21947.625)">
    <g id="Group_3237" data-name="Group 3237" transform="translate(-18517.262 -21941.277)">
      <g id="Group_3230" data-name="Group 3230" transform="translate(0 0.449)">
        <path id="Path_1715" data-name="Path 1715" d="M-57.7-44.589q-2.579,0-2.58,1.379v16.019q0,1.375,2.58,1.377v1.71h-9.4v-1.71q2.551,0,2.551-1.377V-42.88l-6.276,18.774h-3.724L-80.825-42.88v15.689q0,1.38,2.55,1.377v1.71h-7.479v-1.71c1.7,0,2.548-.462,2.548-1.377V-43.21q0-1.382-2.548-1.379v-1.769h8.539l5.672,17.49,5.673-17.49H-57.7v1.769Z" transform="translate(85.753 46.358)" fill="#019547"/>
      </g>
      <g id="Group_3231" data-name="Group 3231" transform="translate(29.03)">
        <path id="Path_1716" data-name="Path 1716" d="M-43.814-46.168a8.241,8.241,0,0,1,3.381,1.958,9.172,9.172,0,0,1,2.221,3.573,16.029,16.029,0,0,1,.8,5.441,15.63,15.63,0,0,1-.688,4.8,9.813,9.813,0,0,1-2.062,3.647,9.083,9.083,0,0,1-3.469,2.333,13.276,13.276,0,0,1-4.871.823,15.082,15.082,0,0,1-4.212-.568,8.253,8.253,0,0,1-3.367-1.885,9.028,9.028,0,0,1-2.235-3.435,14.69,14.69,0,0,1-.816-5.237,18.33,18.33,0,0,1,.631-5.009,9.893,9.893,0,0,1,1.976-3.8,8.649,8.649,0,0,1,3.441-2.407,13.41,13.41,0,0,1,5.012-.841A14.473,14.473,0,0,1-43.814-46.168Zm-7.174,2.41a5.2,5.2,0,0,0-2.108,1.6,6.88,6.88,0,0,0-1.2,2.574,14.17,14.17,0,0,0-.388,3.473,23.448,23.448,0,0,0,.432,4.957A8.375,8.375,0,0,0-53.023-28.1a4.212,4.212,0,0,0,1.947,1.556,7.259,7.259,0,0,0,2.581.434,7.7,7.7,0,0,0,3.18-.582A4.92,4.92,0,0,0-43.251-28.4a7.522,7.522,0,0,0,1.116-2.785A19.066,19.066,0,0,0-41.79-35a19.588,19.588,0,0,0-.445-4.58,7.681,7.681,0,0,0-1.247-2.846,4.281,4.281,0,0,0-1.933-1.47,7.149,7.149,0,0,0-2.508-.418A7.681,7.681,0,0,0-50.989-43.759Z" transform="translate(59.128 46.77)" fill="#019547"/>
      </g>
      <g id="Group_3232" data-name="Group 3232" transform="translate(51.714 0.448)">
        <path id="Path_1717" data-name="Path 1717" d="M-26.961-46.356a18.52,18.52,0,0,1,3.358.281,6.847,6.847,0,0,1,2.6,1.021,4.825,4.825,0,0,1,1.665,1.991,7.56,7.56,0,0,1,.589,3.207,8.108,8.108,0,0,1-.589,3.294,5.185,5.185,0,0,1-1.667,2.108,6.763,6.763,0,0,1-2.6,1.124,15.968,15.968,0,0,1-3.36.328H-31.39V-27.2q0,1.379,3.18,1.381v1.71H-38.323v-1.71c1.7,0,2.549-.462,2.549-1.377V-43.211q0-1.382-2.549-1.379v-1.769h11.362Zm-4.429,2.514v8.386h3.926a4.286,4.286,0,0,0,3.324-1.112,4.758,4.758,0,0,0,1-3.275,4.1,4.1,0,0,0-1-2.944,4.443,4.443,0,0,0-3.324-1.054Z" transform="translate(38.323 46.359)" fill="#019547"/>
      </g>
      <g id="Group_3233" data-name="Group 3233" transform="translate(72.625 0.153)">
        <path id="Path_1718" data-name="Path 1718" d="M2.457-27.016a3.368,3.368,0,0,1-.744,2.274,3.511,3.511,0,0,1-2.748.867,6.033,6.033,0,0,1-1.834-.237,3.03,3.03,0,0,1-1.2-.674,2.474,2.474,0,0,1-.657-1.033,4.124,4.124,0,0,1-.2-1.319v-4.071a3.98,3.98,0,0,0-.7-2.648A3.331,3.331,0,0,0-8.2-34.652h-4.014v7.481q0,1.384,2.693,1.385v1.706h-9.627v-1.71c1.7,0,2.549-.462,2.549-1.377V-43.218c0-.92-.849-1.377-2.549-1.377v-1.736h9.627V-44.6c-1.8,0-2.694.462-2.694,1.377v6.38h4.672a1.975,1.975,0,0,0,1.658-.734,3.818,3.818,0,0,0,.577-2.351v-2.785a4.132,4.132,0,0,1,.958-2.832A3.591,3.591,0,0,1-1.5-46.63a4.6,4.6,0,0,1,1.69.282,3.127,3.127,0,0,1,1.161.766,3.016,3.016,0,0,1,.656,1.121,4.168,4.168,0,0,1,.218,1.333,3.25,3.25,0,0,1-.559,1.93A1.968,1.968,0,0,1-.063-40.4a2.354,2.354,0,0,1-1.618-.54A1.837,1.837,0,0,1-2.3-42.412a2.237,2.237,0,0,1,.446-1.435,2.092,2.092,0,0,1,1.39-.72,2.021,2.021,0,0,0-.834-.182,1.656,1.656,0,0,0-1.332.554A2.794,2.794,0,0,0-3.1-42.379v2.454a6.224,6.224,0,0,1-.388,2.318,3.259,3.259,0,0,1-1.59,1.634A5.644,5.644,0,0,1-1.7-34.349,5.365,5.365,0,0,1-.548-30.623v3.9c0,.581.225.869.669.869s.674-.289.674-.867v-1.918H2.456v1.618Z" transform="translate(19.145 46.63)" fill="#019547"/>
      </g>
      <g id="Group_3234" data-name="Group 3234" transform="translate(95.656 0.001)">
        <path id="Path_1719" data-name="Path 1719" d="M17.3-46.168A8.28,8.28,0,0,1,20.68-44.21,9.167,9.167,0,0,1,22.9-40.637a16.074,16.074,0,0,1,.8,5.443,15.493,15.493,0,0,1-.69,4.8,9.715,9.715,0,0,1-2.062,3.65,9.1,9.1,0,0,1-3.469,2.335,13.285,13.285,0,0,1-4.871.818,14.908,14.908,0,0,1-4.21-.568,8.218,8.218,0,0,1-3.367-1.883A8.995,8.995,0,0,1,2.8-29.479a14.662,14.662,0,0,1-.818-5.237,18.369,18.369,0,0,1,.633-5.009,9.848,9.848,0,0,1,1.976-3.8,8.645,8.645,0,0,1,3.436-2.407,13.412,13.412,0,0,1,5.013-.841A14.49,14.49,0,0,1,17.3-46.168Zm-7.181,2.41a5.188,5.188,0,0,0-2.1,1.6,6.933,6.933,0,0,0-1.2,2.574,14.016,14.016,0,0,0-.387,3.473,23.466,23.466,0,0,0,.43,4.957A8.394,8.394,0,0,0,8.085-28.1a4.191,4.191,0,0,0,1.945,1.556,7.236,7.236,0,0,0,2.58.434,7.68,7.68,0,0,0,3.177-.582A4.909,4.909,0,0,0,17.854-28.4a7.559,7.559,0,0,0,1.116-2.785A18.917,18.917,0,0,0,19.313-35a19.736,19.736,0,0,0-.44-4.58,7.716,7.716,0,0,0-1.244-2.846A4.315,4.315,0,0,0,15.7-43.9a7.178,7.178,0,0,0-2.51-.418A7.722,7.722,0,0,0,10.117-43.759Z" transform="translate(-1.978 46.769)" fill="#019547"/>
      </g>
      <g id="Group_3235" data-name="Group 3235" transform="translate(118.343 0.451)">
        <path id="Path_1720" data-name="Path 1720" d="M34.852-46.356a20.236,20.236,0,0,1,2.907.2,6.61,6.61,0,0,1,2.381.776,4.213,4.213,0,0,1,1.6,1.69,6.264,6.264,0,0,1,.584,2.908A4.469,4.469,0,0,1,42-39.022a4.429,4.429,0,0,1-.888,1.362,5.291,5.291,0,0,1-1.3.991,6.8,6.8,0,0,1-1.574.612,6.915,6.915,0,0,1,4.056,1.59,4.811,4.811,0,0,1,1.445,3.744,8.037,8.037,0,0,1-.542,3.143,4.989,4.989,0,0,1-1.576,2.039,6.462,6.462,0,0,1-2.55,1.108,16.677,16.677,0,0,1-3.5.33H22.786v-1.71c1.7,0,2.55-.462,2.55-1.377V-43.117c0-.922-.847-1.381-2.55-1.381v-1.826Zm-5.129,2.6v6.981h4.643a3.477,3.477,0,0,0,2.574-.871A3.788,3.788,0,0,0,37.8-40.4a3.3,3.3,0,0,0-.885-2.531,3.625,3.625,0,0,0-2.549-.825Zm0,8.984v8.206h5.384a4.873,4.873,0,0,0,1.876-.313,3.092,3.092,0,0,0,1.233-.886,3.393,3.393,0,0,0,.668-1.368,7.28,7.28,0,0,0,.2-1.786,3.782,3.782,0,0,0-1-2.961,4.343,4.343,0,0,0-2.977-.888H29.724v0Z" transform="translate(-22.786 46.356)" fill="#019547"/>
      </g>
      <g id="Group_3236" data-name="Group 3236" transform="translate(140.936 0.45)">
        <path id="Path_1721" data-name="Path 1721" d="M43.507-24.106v-1.71a3.648,3.648,0,0,0,2.036-.389,1.114,1.114,0,0,0,.517-.874V-43.39a1.027,1.027,0,0,0-.659-.931,4.287,4.287,0,0,0-1.893-.328v-1.707h9.6v1.707A4.261,4.261,0,0,0,51-44.286a1.062,1.062,0,0,0-.559.9v6.012h4.033a25.94,25.94,0,0,1,3.649.238,8.123,8.123,0,0,1,2.827.909,4.586,4.586,0,0,1,1.832,1.912,6.967,6.967,0,0,1,.643,3.214,7.384,7.384,0,0,1-.675,3.317,5.493,5.493,0,0,1-1.876,2.164,7.861,7.861,0,0,1-2.841,1.17,17.47,17.47,0,0,1-3.56.34H43.507ZM54.94-26.563a3.866,3.866,0,0,0,3.082-1.172,4.7,4.7,0,0,0,1.016-3.182A4.076,4.076,0,0,0,58.053-34a4.473,4.473,0,0,0-3.111-.919h-4.5v8.356Z" transform="translate(-43.507 46.357)" fill="#019547"/>
      </g>
    </g>
    <g id="Group_3289" data-name="Group 3289" transform="translate(-18576.41 -21947.625)">
      <path id="Path_1725" data-name="Path 1725" d="M.193,21.3s-3.8-1.027-6.31.153a17.788,17.788,0,0,0-5.2,7.43,19.058,19.058,0,0,0-.961-3.112s-2.175-6.827-10.57-4.781c0,0-3.5,1.811-4.544,4.379a17.837,17.837,0,0,0,3.378,12.865s5.01,7.186,12.53,11c0,0,.1-.6.245-1.609.2.724.428,1.447.7,2.164,0,0,12.2-9.355,15.286-17.826C4.747,31.968,7.757,25.469.193,21.3Z" transform="translate(33.501 -13.535)" fill="#f08f27"/>
      <g id="Group_3242" data-name="Group 3242" transform="translate(6.535 8.559)">
        <path id="Path_1726" data-name="Path 1726" d="M-17.358,34.616a.676.676,0,0,0,.278-.062,15.453,15.453,0,0,1,3.7-1.039.746.746,0,0,0,.72-.764.741.741,0,0,0-.744-.719h-.023a16.6,16.6,0,0,0-4.206,1.146.747.747,0,0,0-.412.968A.745.745,0,0,0-17.358,34.616Z" transform="translate(27.818 -21.064)" fill="#fff"/>
        <path id="Path_1727" data-name="Path 1727" d="M-6.615,24.751a5.235,5.235,0,0,1,2.567.813.733.733,0,0,0,.507.2A.735.735,0,0,0-3,25.529a.752.752,0,0,0-.043-1.057,5.231,5.231,0,0,0-2.466-1.046c.09-.094.156-.158.159-.159A.746.746,0,0,0-5.3,22.219a.744.744,0,0,0-1.05-.056,10.62,10.62,0,0,0-.94,1.027c-.692-.05-1.224-.048-1.366-.046a.749.749,0,0,0-.736.757.747.747,0,0,0,.747.731c.005,0,.01,0,.01,0,.087,0,.19,0,.286,0A21.579,21.579,0,0,0-10.359,28.5a25.9,25.9,0,0,0-1.757,7.956,35.261,35.261,0,0,0,1.04,10.6c-8.7-5.48-12.042-11.252-13.077-13.493-.123-.268-.233-.534-.337-.8A20.451,20.451,0,0,1-19.7,30.5a.749.749,0,0,0,.569-.888.746.746,0,0,0-.883-.568,20.753,20.753,0,0,0-4.95,2.261,16.01,16.01,0,0,1-.516-5.338.746.746,0,0,0-.653-.823.747.747,0,0,0-.822.651A17.13,17.13,0,0,0-25.5,34.181a27.439,27.439,0,0,0,4.8,6.92,43.69,43.69,0,0,0,9.086,7.376.7.7,0,0,0,.39.113.734.734,0,0,0,.635-.357.538.538,0,0,0,.032-.085.721.721,0,0,0,.341.1.758.758,0,0,0,.19-.023.744.744,0,0,0,.532-.9c-2.192-8.473-.945-14.56.485-18.178A19.635,19.635,0,0,1-6.615,24.751Z" transform="translate(27.013 -21.973)" fill="#fff"/>
        <path id="Path_1728" data-name="Path 1728" d="M-2.092,38.2A11.053,11.053,0,0,0-5.717,35.7a.739.739,0,0,0-.976.384.742.742,0,0,0,.386.979A9.453,9.453,0,0,1-3.266,39.12a.753.753,0,0,0,.587.286.75.75,0,0,0,.461-.164A.745.745,0,0,0-2.092,38.2Z" transform="translate(28.843 -20.738)" fill="#fff"/>
      </g>
      <path id="Path_1729" data-name="Path 1729" d="M4.626,23.495A8.709,8.709,0,0,0-2.7,19.886a.743.743,0,0,0-.689.8.737.737,0,0,0,.8.685,7.223,7.223,0,0,1,6,2.991C6.044,28.016,5.182,32.18.7,37.46c-.83.979-1.629,1.861-2.41,2.694A6.824,6.824,0,0,0-5.1,38.284a.749.749,0,0,0-.861.6.746.746,0,0,0,.6.865,5.373,5.373,0,0,1,2.623,1.486A80.784,80.784,0,0,1-9.75,47.541c-.2.161-.4.325-.588.481a41.429,41.429,0,0,1-1.384-9.165,23.9,23.9,0,0,1,2.68-12.675,12.287,12.287,0,0,1,5.255,1.186.725.725,0,0,0,.365.1.734.734,0,0,0,.642-.383.742.742,0,0,0-.283-1.012A12.731,12.731,0,0,0-8.14,24.732,16.713,16.713,0,0,1-5.6,21.853.748.748,0,0,0-5.543,20.8a.75.75,0,0,0-1.05-.061,18.181,18.181,0,0,0-3.527,4.31.66.66,0,0,0-.076.132c-.3.519-.584,1.05-.841,1.6a10.3,10.3,0,0,0-3.368-5.031,9.18,9.18,0,0,0-7.028-1.685,8.488,8.488,0,0,0-4.686,2.507.745.745,0,0,0,.048,1.05.745.745,0,0,0,1.05-.053,7.091,7.091,0,0,1,3.858-2.044,7.664,7.664,0,0,1,5.856,1.4,9.421,9.421,0,0,1,3.133,5.218c.073.254.137.519.2.783a.678.678,0,0,0,.05.123c-.051.156-.109.3-.157.462a26.153,26.153,0,0,0-.978,5.177,12.8,12.8,0,0,0-4.058,1.333.748.748,0,0,0-.3,1.009.749.749,0,0,0,.655.388.777.777,0,0,0,.351-.087A11.98,11.98,0,0,1-13.181,36.2c-.041.891-.052,1.8-.022,2.738a42.214,42.214,0,0,0,1.329,9.093,38,38,0,0,1-3.858-2.382c-.714-.534-1.419-1.1-2.092-1.682-.4-.349-.78-.717-1.181-1.1-.252-.241-.511-.488-.776-.739a24.638,24.638,0,0,1-3.126-3.667,23.917,23.917,0,0,1-2.013-3.292,19.613,19.613,0,0,1,6.451-3.433.741.741,0,0,0,.486-.928.744.744,0,0,0-.931-.491,20.981,20.981,0,0,0-6.627,3.448,19.341,19.341,0,0,1-1.028-3.227,18.511,18.511,0,0,1-.27-4.006v-.572a.748.748,0,0,0-.744-.748.745.745,0,0,0-.741.746c0,.193,0,.378,0,.568a19.724,19.724,0,0,0,.3,4.323,21,21,0,0,0,1.386,4.19c.032.069.071.142.1.212v0a25.237,25.237,0,0,0,2.419,4.08,25.829,25.829,0,0,0,3.325,3.888c.25.234.5.478.749.717.4.382.808.775,1.243,1.152.7.61,1.433,1.2,2.176,1.754a48.367,48.367,0,0,0,5.147,3.11l.231.128a.735.735,0,0,0,.355.092.726.726,0,0,0,.47-.2.787.787,0,0,0,.167-.094c.44-.373.925-.771,1.443-1.2A75.086,75.086,0,0,0,1.839,38.409C6.765,32.616,7.671,27.735,4.626,23.495Z" transform="translate(33.429 -13.601)" fill="#c95528"/>
      <g id="Group_3261" data-name="Group 3261" transform="translate(0 0.024)">
        <path id="Path_1747" data-name="Path 1747" d="M-22.641,14.213a10.822,10.822,0,0,0-.423,1.842c-.352-.609-.639-1.18-.976-1.8-1.183.038-2.367.07-3.547.111.053.166.1.326.15.456.409,1.178,1.024,2.192,1.167,2.924-1.4-.867-6.011-2.564-6.658-1.348-.36.672.583,1.588.983,1.968A15.719,15.719,0,0,0-26.469,21.4a11.554,11.554,0,0,1,6.208-2.664,16.266,16.266,0,0,0,1.143-4.589C-20.295,14.158-21.469,14.183-22.641,14.213Z" transform="translate(33.008 -14.144)" fill="#019547"/>
      </g>
      <g id="Group_3262" data-name="Group 3262" transform="translate(30.81 0)">
        <path id="Path_1748" data-name="Path 1748" d="M2.41,17.769c.144-.731.761-1.75,1.169-2.926.05-.143.11-.314.165-.5-1.18-.047-2.356-.079-3.536-.111-.351.632-.644,1.218-1.007,1.842a10.8,10.8,0,0,0-.437-1.886c-1.17-.028-2.341-.045-3.513-.067A16.317,16.317,0,0,0-3.6,18.749,11.683,11.683,0,0,1,2.6,21.415a15.716,15.716,0,0,0,5.475-3.028c.4-.382,1.343-1.3.985-1.97C8.421,15.2,3.808,16.908,2.41,17.769Z" transform="translate(4.75 -14.122)" fill="#019547"/>
      </g>
    </g>
  </g>
</svg>
