<svg xmlns="http://www.w3.org/2000/svg" width="146.388" height="27.02" viewBox="0 0 146.388 27.02">
  <g id="Group_3611" data-name="Group 3611" transform="translate(-345 -832)">
    <text id="Морковь" transform="translate(385.389 853)" fill="#019547" font-size="22" font-family="Montserrat-Bold, Montserrat" font-weight="700"><tspan x="0" y="0">Морковь</tspan></text>
    <g id="Group_3377" data-name="Group 3377" transform="translate(0.411 407)">
      <path id="Path_1725" data-name="Path 1725" d="M-7.332,21.114s-2.77-.748-4.6.111a12.961,12.961,0,0,0-3.788,5.413,13.886,13.886,0,0,0-.7-2.267S-18,19.4-24.119,20.888c0,0-2.549,1.32-3.311,3.19a13,13,0,0,0,2.461,9.374,28.268,28.268,0,0,0,9.13,8.017s.076-.435.179-1.173c.149.528.312,1.054.508,1.577,0,0,8.89-6.816,11.138-12.988C-4.015,28.886-1.821,24.15-7.332,21.114Z" transform="translate(376.472 409.919)" fill="#f08f27"/>
      <g id="Group_3242" data-name="Group 3242" transform="translate(349.352 431.612)">
        <path id="Path_1726" data-name="Path 1726" d="M-17.56,33.915a.493.493,0,0,0,.2-.045,11.26,11.26,0,0,1,2.694-.757.544.544,0,0,0,.524-.557.54.54,0,0,0-.542-.524H-14.7a12.092,12.092,0,0,0-3.065.835.544.544,0,0,0-.3.705A.543.543,0,0,0-17.56,33.915Z" transform="translate(25.181 -24.041)" fill="#fff"/>
        <path id="Path_1727" data-name="Path 1727" d="M-12.151,24a3.814,3.814,0,0,1,1.87.593.534.534,0,0,0,.369.144.536.536,0,0,0,.395-.17.548.548,0,0,0-.031-.77,3.812,3.812,0,0,0-1.8-.762c.066-.068.114-.115.116-.116a.543.543,0,0,0,.038-.763.542.542,0,0,0-.765-.041,7.738,7.738,0,0,0-.685.748c-.5-.037-.892-.035-1-.033a.545.545,0,0,0-.536.551.544.544,0,0,0,.544.532s.007,0,.007,0c.064,0,.138,0,.208,0a15.723,15.723,0,0,0-1.467,2.819,18.87,18.87,0,0,0-1.28,5.8,25.692,25.692,0,0,0,.758,7.721c-6.338-3.993-8.774-8.2-9.529-9.831-.09-.2-.17-.389-.245-.583a14.9,14.9,0,0,1,3.492-1.644.545.545,0,0,0,.415-.647.544.544,0,0,0-.643-.414,15.121,15.121,0,0,0-3.607,1.648,11.665,11.665,0,0,1-.376-3.89.543.543,0,0,0-.476-.6.545.545,0,0,0-.6.474,12.481,12.481,0,0,0,1.056,6.108,19.992,19.992,0,0,0,3.5,5.042,31.834,31.834,0,0,0,6.62,5.374.508.508,0,0,0,.284.083.535.535,0,0,0,.462-.26.392.392,0,0,0,.023-.062.525.525,0,0,0,.249.07.552.552,0,0,0,.138-.017.542.542,0,0,0,.388-.658c-1.6-6.174-.689-10.609.354-13.245A14.307,14.307,0,0,1-12.151,24Z" transform="translate(27.013 -21.973)" fill="#fff"/>
        <path id="Path_1728" data-name="Path 1728" d="M-3.357,37.5A8.054,8.054,0,0,0-6,35.687a.538.538,0,0,0-.711.28.541.541,0,0,0,.281.713,6.887,6.887,0,0,1,2.216,1.5.549.549,0,0,0,.427.208.546.546,0,0,0,.336-.119A.543.543,0,0,0-3.357,37.5Z" transform="translate(22.849 -24.783)" fill="#fff"/>
      </g>
      <path id="Path_1729" data-name="Path 1729" d="M-4.317,22.513a6.346,6.346,0,0,0-5.337-2.63.541.541,0,0,0-.5.581.537.537,0,0,0,.582.5A5.263,5.263,0,0,1-5.2,23.142c1.916,2.665,1.289,5.7-1.974,9.546-.6.713-1.187,1.356-1.756,1.963A4.972,4.972,0,0,0-11.4,33.289a.546.546,0,0,0-.628.438.543.543,0,0,0,.435.63A3.915,3.915,0,0,1-9.683,35.44a58.863,58.863,0,0,1-5.108,4.594c-.147.118-.288.237-.428.35a30.186,30.186,0,0,1-1.008-6.678,17.414,17.414,0,0,1,1.953-9.235,8.953,8.953,0,0,1,3.829.864.528.528,0,0,0,.266.071.535.535,0,0,0,.468-.279.541.541,0,0,0-.207-.737,9.276,9.276,0,0,0-3.7-.975,12.178,12.178,0,0,1,1.849-2.1.545.545,0,0,0,.042-.767.547.547,0,0,0-.765-.044,13.247,13.247,0,0,0-2.57,3.14.481.481,0,0,0-.056.1c-.219.378-.426.765-.613,1.169a7.5,7.5,0,0,0-2.454-3.666A6.689,6.689,0,0,0-23.3,20.018a6.184,6.184,0,0,0-3.415,1.826.543.543,0,0,0,.035.765.543.543,0,0,0,.765-.039,5.167,5.167,0,0,1,2.811-1.49A5.584,5.584,0,0,1-18.841,22.1a6.864,6.864,0,0,1,2.282,3.8c.053.185.1.378.144.57a.494.494,0,0,0,.037.09c-.037.114-.079.221-.114.337a19.055,19.055,0,0,0-.713,3.772,9.329,9.329,0,0,0-2.957.972.545.545,0,0,0-.219.735.546.546,0,0,0,.477.283.566.566,0,0,0,.256-.064,8.729,8.729,0,0,1,2.357-.827c-.03.649-.038,1.312-.016,1.995a30.758,30.758,0,0,0,.968,6.626,27.686,27.686,0,0,1-2.811-1.736c-.52-.389-1.034-.8-1.525-1.226-.294-.254-.568-.523-.86-.8-.184-.176-.373-.356-.566-.539a17.952,17.952,0,0,1-2.278-2.672,17.427,17.427,0,0,1-1.467-2.4,14.29,14.29,0,0,1,4.7-2.5.54.54,0,0,0,.354-.676.542.542,0,0,0-.678-.358A15.288,15.288,0,0,0-26.3,30a14.092,14.092,0,0,1-.749-2.352,13.488,13.488,0,0,1-.2-2.919v-.417a.545.545,0,0,0-.542-.545.542.542,0,0,0-.54.543c0,.141,0,.276,0,.414a14.371,14.371,0,0,0,.221,3.15,15.3,15.3,0,0,0,1.01,3.053c.023.05.052.1.075.154v0a18.388,18.388,0,0,0,1.763,2.973,18.82,18.82,0,0,0,2.423,2.833c.182.171.367.348.546.523.289.278.589.565.906.84.509.444,1.044.872,1.586,1.278a35.241,35.241,0,0,0,3.751,2.266l.168.093a.535.535,0,0,0,.259.067.529.529,0,0,0,.342-.145.574.574,0,0,0,.122-.068c.321-.272.674-.562,1.051-.873A54.71,54.71,0,0,0-6.347,33.38C-2.758,29.159-2.1,25.6-4.317,22.513Z" transform="translate(376.635 410.07)" fill="#c95528"/>
      <g id="Group_3261" data-name="Group 3261" transform="translate(344.589 425.392)">
        <path id="Path_1747" data-name="Path 1747" d="M-25.454,14.194a7.885,7.885,0,0,0-.308,1.342c-.257-.444-.466-.86-.711-1.309-.862.028-1.725.051-2.584.081.039.121.076.238.11.332.3.858.746,1.6.85,2.131-1.019-.632-4.38-1.869-4.851-.982-.262.489.425,1.157.717,1.434a11.453,11.453,0,0,0,3.989,2.206,8.419,8.419,0,0,1,4.524-1.941,11.851,11.851,0,0,0,.833-3.344C-23.745,14.154-24.6,14.173-25.454,14.194Z" transform="translate(33.008 -14.144)" fill="#019547"/>
      </g>
      <g id="Group_3262" data-name="Group 3262" transform="translate(367.038 425.375)">
        <path id="Path_1748" data-name="Path 1748" d="M.467,16.779c.1-.532.555-1.275.852-2.132.037-.1.08-.229.12-.363-.86-.034-1.717-.057-2.576-.081-.256.461-.47.887-.734,1.342A7.866,7.866,0,0,0-2.19,14.17c-.852-.021-1.706-.033-2.56-.048a11.889,11.889,0,0,0,.836,3.372A8.513,8.513,0,0,1,.609,19.436,11.451,11.451,0,0,0,4.6,17.23c.294-.278.979-.944.717-1.436C4.847,14.911,1.486,16.152.467,16.779Z" transform="translate(4.75 -14.122)" fill="#019547"/>
      </g>
    </g>
  </g>
</svg>
