<svg xmlns="http://www.w3.org/2000/svg" width="73" height="63.869" viewBox="0 0 73 63.869">
  <g id="Group_3382" data-name="Group 3382" transform="translate(-1595.929 -289.266)">
    <path id="Path_1836" data-name="Path 1836" d="M1428.3,822.922c-19.305,0-35,12.029-35,26.818,0,10.149,7.756,19.607,19.76,24.1a3.638,3.638,0,0,1,1.982,5.029l-.215.436c-.222.465-.447.931-.716,1.378a26.891,26.891,0,0,1-2.16,3.109,24,24,0,0,0,10.7-6.251,3.647,3.647,0,0,1,2.836-1.1c.924.058,1.859.116,2.811.116,19.3,0,35-12.033,35-26.818s-15.7-26.818-35-26.818Z" transform="translate(204.131 -532.157)" fill="#f4dcc1"/>
    <path id="Path_1837" data-name="Path 1837" d="M1415.578,822.777l-.149,0a7.544,7.544,0,0,1-13.168.16h-.083c-4.276.018-7.7,3.818-7.636,8.491a8.849,8.849,0,0,0,.411,2.564c.6,2.633,4.938,6.48,8.949,9.6,1.945,1.505,5.229,3.742,5.229,3.756a56.561,56.561,0,0,0,5.12-3.858c3.92-3.215,8.145-7.189,8.68-9.847a8.72,8.72,0,0,0,.345-2.575c-.055-4.629-3.494-8.295-7.7-8.295Z" transform="translate(223.513 -516.434)" fill="#f08f27"/>
    <path id="Path_1838" data-name="Path 1838" d="M1428.3,822.922c-19.305,0-35,12.029-35,26.818,0,10.149,7.756,19.607,19.76,24.1a3.638,3.638,0,0,1,1.982,5.029l-.215.436c-.222.465-.447.931-.716,1.378a26.891,26.891,0,0,1-2.16,3.109,24,24,0,0,0,10.7-6.251,3.647,3.647,0,0,1,2.836-1.1c.924.058,1.859.116,2.811.116,19.3,0,35-12.033,35-26.818s-15.7-26.818-35-26.818Z" transform="translate(204.131 -532.156)" fill="none" stroke="#f08f27" stroke-linecap="round" stroke-linejoin="round" stroke-width="3"/>
  </g>
</svg>
