<svg xmlns="http://www.w3.org/2000/svg" width="74" height="65" viewBox="0 0 74 65"><g><g><path fill="#f4dcc1" d="M37 1.765c-19.305 0-35 12.03-35 26.818 0 10.15 7.756 19.608 19.76 24.099a3.637 3.637 0 0 1 1.981 5.029l-.214.436c-.222.465-.447.931-.716 1.378a26.891 26.891 0 0 1-2.16 3.11c4.217-1.22 7.883-3.339 10.702-6.252a3.647 3.647 0 0 1 2.835-1.098c.925.058 1.86.117 2.812.117 19.298 0 35-12.033 35-26.819C72 13.794 56.298 1.765 37 1.765z"/></g><g><path fill="#f08f27" d="M43.661 17.343l-.149.004c-2.811.04-5.247 1.615-6.574 3.942-1.372-2.273-3.808-3.782-6.594-3.782h-.083c-4.276.018-7.702 3.818-7.636 8.491.014.91.156 1.767.41 2.564.604 2.632 4.939 6.48 8.95 9.6 1.945 1.505 5.229 3.742 5.229 3.756 1.385-.88 3.222-2.29 5.12-3.858 3.92-3.215 8.145-7.19 8.68-9.847.232-.8.36-1.67.345-2.575-.055-4.629-3.494-8.295-7.698-8.295z"/></g><g><path fill="none" stroke="#f08f27" stroke-linecap="round" stroke-linejoin="round" stroke-miterlimit="20" stroke-width="3" d="M37 1.766c-19.306 0-35 12.03-35 26.818 0 10.15 7.756 19.608 19.76 24.099a3.637 3.637 0 0 1 1.981 5.029l-.214.436c-.222.465-.447.931-.716 1.378a26.891 26.891 0 0 1-2.16 3.11c4.217-1.219 7.883-3.339 10.701-6.252a3.647 3.647 0 0 1 2.836-1.098c.924.058 1.859.117 2.812.117 19.298 0 35-12.033 35-26.819C72 13.796 56.298 1.766 37 1.766z"/></g></g></svg>