<svg xmlns="http://www.w3.org/2000/svg" xmlns:xlink="http://www.w3.org/1999/xlink" width="313.685" height="38.901" viewBox="0 0 313.685 38.901">
  <defs>
    <linearGradient id="linear-gradient" x2="1" gradientUnits="objectBoundingBox">
      <stop offset="0" stop-color="#00b4e6"/>
      <stop offset="0.3" stop-color="#00b4e6"/>
      <stop offset="1" stop-color="#088ccb"/>
    </linearGradient>
  </defs>
  <g id="Group_3279" data-name="Group 3279" transform="translate(-2779 22624.001)">
    <g id="Maestro_2016" transform="translate(941.162 -23891.928)">
      <g id="Group_3278" data-name="Group 3278" transform="translate(1837.838 1267.928)">
        <g id="Group_3273" data-name="Group 3273" transform="translate(48.226 24.433)">
          <path id="Path_5040" data-name="Path 5040" d="M-3.9-1.8v-.6h-.156l-.181.412-.18-.412h-.157v.6h.111v-.45l.169.39h.115l.169-.391V-1.8Zm-.992,0v-.5h.2v-.1H-5.2v.1H-5v.5Z" transform="translate(5.207 2.397)" fill="#0099df"/>
        </g>
        <path id="Path_5041" data-name="Path 5041" d="M3585.39,2171.88h-13.523v-24.3h13.523Z" transform="translate(-3553.628 -2144.265)" fill="#6c6bbd"/>
        <g id="Group_3274" data-name="Group 3274">
          <path id="Path_5042" data-name="Path 5042" d="M-57.288-46.352a15.431,15.431,0,0,1,5.9-12.152,15.389,15.389,0,0,0-9.552-3.3A15.456,15.456,0,0,0-76.392-46.352,15.456,15.456,0,0,0-60.937-30.9a15.389,15.389,0,0,0,9.552-3.3,15.431,15.431,0,0,1-5.9-12.152" transform="translate(76.392 61.809)" fill="#eb001b"/>
        </g>
        <g id="Group_3275" data-name="Group 3275" transform="translate(24.992)">
          <path id="Path_5043" data-name="Path 5043" d="M-74.993-46.352A15.456,15.456,0,0,1-90.448-30.9,15.394,15.394,0,0,1-100-34.2a15.429,15.429,0,0,0,5.9-12.152A15.429,15.429,0,0,0-100-58.5a15.394,15.394,0,0,1,9.553-3.3A15.456,15.456,0,0,1-74.993-46.354" transform="translate(100.001 61.809)" fill="#0099df"/>
        </g>
        <g id="Group_3276" data-name="Group 3276" transform="translate(8.161 33.332)">
          <path id="Path_5044" data-name="Path 5044" d="M-84.444-3.424a1.9,1.9,0,0,1,.636.112l-.275.841a1.447,1.447,0,0,0-.558-.1c-.584,0-.876.377-.876,1.055v2.3h-.893v-4.1h.884v.5a1.211,1.211,0,0,1,1.082-.6m-3.3.919H-89.2V-.651c0,.412.145.687.593.687A1.645,1.645,0,0,0-87.822-.2l.257.764A2.094,2.094,0,0,1-88.68.882c-1.056,0-1.42-.563-1.42-1.516V-2.505h-.833v-.816h.833V-4.566h.9v1.245h1.459Zm-11.428.876a1.058,1.058,0,0,1,1.091-1,1.02,1.02,0,0,1,1.039,1Zm3.057.361a1.968,1.968,0,0,0-.5-1.507,1.968,1.968,0,0,0-1.45-.648,2,2,0,0,0-1.5.625,2,2,0,0,0-.544,1.53A2.024,2.024,0,0,0-99.531.282,2.024,2.024,0,0,0-98,.885,2.494,2.494,0,0,0-96.321.31l-.438-.661a1.951,1.951,0,0,1-1.193.429,1.14,1.14,0,0,1-1.227-1h3.047c.009-.112.018-.223.018-.343m3.923-1a2.632,2.632,0,0,0-1.279-.353c-.489,0-.781.181-.781.482,0,.274.309.352.695.4l.421.06c.893.13,1.434.507,1.434,1.228,0,.781-.687,1.339-1.871,1.339A2.961,2.961,0,0,1-95.351.353l.421-.7a2.189,2.189,0,0,0,1.366.429c.609,0,.936-.18.936-.5,0-.231-.232-.361-.721-.428l-.421-.06c-.919-.13-1.417-.541-1.417-1.211,0-.816.67-1.314,1.709-1.314A3.067,3.067,0,0,1-91.8-3Zm11.011-.3a1.353,1.353,0,0,0-.512.1,1.229,1.229,0,0,0-.409.271,1.258,1.258,0,0,0-.271.418,1.412,1.412,0,0,0-.1.536,1.408,1.408,0,0,0,.1.536,1.258,1.258,0,0,0,.272.4,1.229,1.229,0,0,0,.409.271,1.334,1.334,0,0,0,.512.1,1.33,1.33,0,0,0,.512-.1A1.227,1.227,0,0,0-80.258-.3a1.249,1.249,0,0,0,.274-.418,1.408,1.408,0,0,0,.1-.536,1.412,1.412,0,0,0-.1-.536,1.249,1.249,0,0,0-.274-.418,1.227,1.227,0,0,0-.411-.271,1.349,1.349,0,0,0-.512-.1m0-.848a2.312,2.312,0,0,1,.884.166,2.147,2.147,0,0,1,.7.456,2.087,2.087,0,0,1,.465.686,2.183,2.183,0,0,1,.168.861,2.183,2.183,0,0,1-.168.861A2.092,2.092,0,0,1-79.6.29a2.163,2.163,0,0,1-.7.456,2.33,2.33,0,0,1-.884.165,2.33,2.33,0,0,1-.884-.165,2.139,2.139,0,0,1-.7-.456A2.117,2.117,0,0,1-83.228-.4a2.183,2.183,0,0,1-.168-.861,2.183,2.183,0,0,1,.168-.861,2.113,2.113,0,0,1,.463-.686,2.124,2.124,0,0,1,.7-.456,2.312,2.312,0,0,1,.884-.166m-23.208,2.155a1.232,1.232,0,0,1,.335-.929,1.232,1.232,0,0,1,.91-.385,1.23,1.23,0,0,1,.9.387,1.23,1.23,0,0,1,.331.927,1.23,1.23,0,0,1-.33.928,1.23,1.23,0,0,1-.9.388,1.231,1.231,0,0,1-.91-.384,1.231,1.231,0,0,1-.335-.929m3.323,0V-3.321h-.892v.5a1.557,1.557,0,0,0-1.3-.6,2.056,2.056,0,0,0-1.487.638,2.056,2.056,0,0,0-.565,1.517A2.056,2.056,0,0,0-104.742.25a2.056,2.056,0,0,0,1.488.636,1.557,1.557,0,0,0,1.3-.6v.5h.892ZM-106.1.783V-1.793a1.528,1.528,0,0,0-.438-1.18,1.528,1.528,0,0,0-1.176-.451,1.588,1.588,0,0,0-1.443.73,1.508,1.508,0,0,0-1.357-.73,1.358,1.358,0,0,0-1.2.609v-.506h-.892v4.1h.9V-1.492a.96.96,0,0,1,.243-.781.96.96,0,0,1,.757-.31c.593,0,.893.386.893,1.082V.783h.9V-1.492a.969.969,0,0,1,.247-.778.969.969,0,0,1,.753-.313c.61,0,.9.386.9,1.082V.783Z" transform="translate(112.603 4.566)" fill="#231f20"/>
        </g>
        <g id="Group_3277" data-name="Group 3277" transform="translate(42.419 38.086)">
          <path id="Path_5045" data-name="Path 5045" d="M-1.043-.863v.1H-.95A.092.092,0,0,0-.9-.775.043.043,0,0,0-.88-.813.041.041,0,0,0-.9-.851.084.084,0,0,0-.95-.863Zm.094-.071A.173.173,0,0,1-.837-.9.108.108,0,0,1-.8-.813a.1.1,0,0,1-.031.078A.156.156,0,0,1-.918-.7l.124.142h-.1L-1.006-.7h-.037v.142h-.081V-.934Zm-.025.508A.3.3,0,0,0-.851-.451a.322.322,0,0,0,.1-.068.316.316,0,0,0,.068-.1A.324.324,0,0,0-.658-.744.324.324,0,0,0-.683-.867a.327.327,0,0,0-.068-.1.3.3,0,0,0-.1-.067A.3.3,0,0,0-.973-1.06a.311.311,0,0,0-.125.025.3.3,0,0,0-.1.067.308.308,0,0,0-.067.1.306.306,0,0,0-.025.124.306.306,0,0,0,.025.124.3.3,0,0,0,.067.1.32.32,0,0,0,.1.068.311.311,0,0,0,.125.025m0-.725a.4.4,0,0,1,.161.032.4.4,0,0,1,.133.087A.4.4,0,0,1-.591-.9a.39.39,0,0,1,.032.158.39.39,0,0,1-.032.158A.406.406,0,0,1-.68-.457a.424.424,0,0,1-.133.088.4.4,0,0,1-.161.032.414.414,0,0,1-.164-.032A.413.413,0,0,1-1.27-.457a.406.406,0,0,1-.088-.129A.39.39,0,0,1-1.39-.744.39.39,0,0,1-1.359-.9a.4.4,0,0,1,.088-.13.4.4,0,0,1,.133-.087.414.414,0,0,1,.164-.032" transform="translate(1.391 1.151)" fill="#231f20"/>
        </g>
      </g>
    </g>
    <g id="master-card" transform="translate(2839.021 -22640.004)">
      <path id="Path_4956" data-name="Path 4956" d="M56.493,52.607a1.145,1.145,0,0,1-.254.416.954.954,0,0,1-.386.274,1.167,1.167,0,0,1-.507.1,1.208,1.208,0,0,1-.517-.1,1.186,1.186,0,0,1-.386-.284A1.287,1.287,0,0,1,54.2,52.6a1.613,1.613,0,0,1-.081-.507,1.715,1.715,0,0,1,.081-.507,1.4,1.4,0,0,1,.243-.416,1.187,1.187,0,0,1,.386-.284,1.206,1.206,0,0,1,.517-.1,1.166,1.166,0,0,1,.507.1,1.207,1.207,0,0,1,.386.274,1.237,1.237,0,0,1,.254.416,1.46,1.46,0,0,1,.142.487,1.379,1.379,0,0,1-.142.548Zm0-4.221v2.151a1.754,1.754,0,0,0-.538-.436,1.674,1.674,0,0,0-.751-.162,1.918,1.918,0,0,0-.8.162,1.817,1.817,0,0,0-.649.446,2.029,2.029,0,0,0-.436.68,2.515,2.515,0,0,0,0,1.725,1.958,1.958,0,0,0,.436.68,1.816,1.816,0,0,0,.649.446,1.918,1.918,0,0,0,.8.162,1.552,1.552,0,0,0,.751-.162,1.623,1.623,0,0,0,.538-.436v.5h.883V48.386Zm-25,5.012a1.127,1.127,0,0,0,.426-.081,1.244,1.244,0,0,0,.264-.122l.3.751-.375.172a1.876,1.876,0,0,1-.7.122,1.491,1.491,0,0,1-1.086-.386,1.643,1.643,0,0,1-.386-1.2v-1.8H29.13V50.03h.812V48.812h.9V50.03h1.441v.812H30.844v1.776a.883.883,0,0,0,.051.345.69.69,0,0,0,.132.244.579.579,0,0,0,.213.132.67.67,0,0,0,.254.061ZM18.02,50.03a1.585,1.585,0,0,1,.507.335,1.522,1.522,0,0,1,.335.517,1.9,1.9,0,0,1,.112.649v2.577h-.893V51.856a1.157,1.157,0,0,0-.244-.791.862.862,0,0,0-.68-.274,1.015,1.015,0,0,0-.4.071.842.842,0,0,0-.325.2,1.066,1.066,0,0,0-.223.345,1.268,1.268,0,0,0-.081.457v2.273H15.27V51.856a1.157,1.157,0,0,0-.233-.812.862.862,0,0,0-.68-.274,1.015,1.015,0,0,0-.4.071.842.842,0,0,0-.325.2,1.066,1.066,0,0,0-.223.345,1.268,1.268,0,0,0-.081.457v2.273H12.47V50.03h.852v.5a1.259,1.259,0,0,1,.264-.294,1.464,1.464,0,0,1,.335-.2,1.7,1.7,0,0,1,.325-.091,1.646,1.646,0,0,1,.315,0,1.7,1.7,0,0,1,.8.193,1.522,1.522,0,0,1,.568.538,1.278,1.278,0,0,1,.294-.355,1.839,1.839,0,0,1,.365-.233,1.928,1.928,0,0,1,.4-.112h.386a1.715,1.715,0,0,1,.649.061Zm4.8,3.044a1.287,1.287,0,0,0,.244-.416,1.38,1.38,0,0,0,.091-.6,1.459,1.459,0,0,0-.091-.517,1.4,1.4,0,0,0-.244-.416,1.38,1.38,0,0,0-.4-.274,1.146,1.146,0,0,0-.5-.1,1.206,1.206,0,0,0-.517.1,1.228,1.228,0,0,0-.4.284,1.2,1.2,0,0,0-.233.416,1.45,1.45,0,0,0-.091.507,1.37,1.37,0,0,0,.091.507,1.1,1.1,0,0,0,.233.416,1.227,1.227,0,0,0,.4.284,1.208,1.208,0,0,0,.517.1,1.146,1.146,0,0,0,.5-.1,1.065,1.065,0,0,0,.4-.193Zm-.243-2.922a1.835,1.835,0,0,1,.528.436V50.03H24v4.058h-.842v-.5a1.683,1.683,0,0,1-.528.436,1.623,1.623,0,0,1-.761.162,1.948,1.948,0,0,1-.8-.162,1.907,1.907,0,0,1-.649-.446,2.122,2.122,0,0,1-.436-.68,2.515,2.515,0,0,1,0-1.725,2.232,2.232,0,0,1,.436-.68,1.91,1.91,0,0,1,.649-.446,1.948,1.948,0,0,1,.8-.162,1.755,1.755,0,0,1,.71.213ZM28.1,52.181a2.19,2.19,0,0,0-1.015-.4l-.426-.061H26.39l-.193-.213a.425.425,0,0,1-.142-.122.274.274,0,0,1,0-.183.406.406,0,0,1,.2-.355,1.1,1.1,0,0,1,.568-.132,1.57,1.57,0,0,1,.375,0l.355.081a2.019,2.019,0,0,1,.294.112l.233.122.386-.7a2.661,2.661,0,0,0-.852-.3,3.237,3.237,0,0,0-.9-.112,2.564,2.564,0,0,0-.71.091,1.592,1.592,0,0,0-.528.254,1.207,1.207,0,0,0-.457,1.015,1.015,1.015,0,0,0,.355.8,1.948,1.948,0,0,0,1.015.4h.426a1.328,1.328,0,0,1,.538.172.324.324,0,0,1,.172.284.416.416,0,0,1-.233.365,1.462,1.462,0,0,1-.7.132,2.982,2.982,0,0,1-.446,0,1.928,1.928,0,0,1-.365-.091l-.294-.132-.223-.132-.406.67a1.725,1.725,0,0,0,.457.264,3.309,3.309,0,0,0,.477.162,2.606,2.606,0,0,0,.446.081H26.6a3.127,3.127,0,0,0,.791-.1,1.663,1.663,0,0,0,.588-.274,1.289,1.289,0,0,0,.355-.426,1.086,1.086,0,0,0,.132-.538,1.015,1.015,0,0,0-.375-.852Zm5.976-.751a1.269,1.269,0,0,0-.122.406h2.12a1.238,1.238,0,0,0-.345-.741.923.923,0,0,0-.69-.274,1.1,1.1,0,0,0-.426.081.841.841,0,0,0-.294.142.9.9,0,0,0-.244.294Zm1.755-1.238a1.675,1.675,0,0,1,.619.436,2.352,2.352,0,0,1,.4.68,2.617,2.617,0,0,1,.142.873,1.014,1.014,0,0,1,0,.172.923.923,0,0,1,0,.162H33.939a1.262,1.262,0,0,0,.436.791,1.24,1.24,0,0,0,.365.183,1.421,1.421,0,0,0,.416.061,1.9,1.9,0,0,0,.619-.112,2.081,2.081,0,0,0,.568-.365l.436.629a2.029,2.029,0,0,1-.791.446,2.861,2.861,0,0,1-.883.132,2.263,2.263,0,0,1-.791-.193,1.869,1.869,0,0,1-.67-.436,1.938,1.938,0,0,1-.426-.68,2.445,2.445,0,0,1-.152-.883,2.669,2.669,0,0,1,.142-.873,2.029,2.029,0,0,1,.426-.68,1.674,1.674,0,0,1,.639-.436,2.029,2.029,0,0,1,.822-.162,1.8,1.8,0,0,1,.731.162ZM48.255,52.7a1.146,1.146,0,0,1-.254.416.954.954,0,0,1-.386.274,1.167,1.167,0,0,1-.507.1,1.208,1.208,0,0,1-.517-.1,1.187,1.187,0,0,1-.386-.284,1.287,1.287,0,0,1-.244-.416,1.614,1.614,0,0,1-.081-.507,1.714,1.714,0,0,1,.081-.507,1.4,1.4,0,0,1,.244-.416,1.187,1.187,0,0,1,.386-.284,1.208,1.208,0,0,1,.517-.1,1.167,1.167,0,0,1,.507.1A1.209,1.209,0,0,1,48,51.25a1.237,1.237,0,0,1,.254.416,1.459,1.459,0,0,1,.091.517,1.377,1.377,0,0,1-.091.426Zm0-2.029a1.715,1.715,0,0,0-.528-.436,1.675,1.675,0,0,0-.751-.162,1.889,1.889,0,0,0-.8.162,1.817,1.817,0,0,0-.649.446,2.029,2.029,0,0,0-.436.68,2.374,2.374,0,0,0,0,1.725,1.958,1.958,0,0,0,.436.68,1.816,1.816,0,0,0,.649.446,1.889,1.889,0,0,0,.8.162,1.552,1.552,0,0,0,.751-.162,1.583,1.583,0,0,0,.528-.436v.5h.893V50.03h-.893Zm-8.32-.6a1.623,1.623,0,0,0-.68.142,1.432,1.432,0,0,0-.507.507v-.69h-.812v4.058h.822v-2.2a1.368,1.368,0,0,1,.071-.467,1.147,1.147,0,0,1,.2-.345.822.822,0,0,1,.3-.213,1.015,1.015,0,0,1,.4-.071,1.382,1.382,0,0,1,.345,0h.183l.264-.852-.223-.051a1.876,1.876,0,0,0-.335.051Zm11.719.142a1.623,1.623,0,0,1,.68-.142,1.979,1.979,0,0,1,.365,0l.223.051-.264.852h-.183a1.443,1.443,0,0,0-.345,0,1.015,1.015,0,0,0-.4.071.823.823,0,0,0-.3.213,1.015,1.015,0,0,0-.2.345,1.368,1.368,0,0,0-.071.467v2.252h-.822V50.03h.812v.538a1.431,1.431,0,0,1,.538-.487Zm-9.131.8a1.331,1.331,0,0,0-.406.264,1.168,1.168,0,0,0-.264.416,1.288,1.288,0,0,0-.1.528,1.339,1.339,0,0,0,.1.538,1.218,1.218,0,0,0,.264.406,1.2,1.2,0,0,0,.406.274,1.453,1.453,0,0,0,.507.091,1.614,1.614,0,0,0,.558-.091,1.258,1.258,0,0,0,.436-.264l.426.72a2.141,2.141,0,0,1-.538.315,2.456,2.456,0,0,1-1.755,0,2.151,2.151,0,0,1-.69-.457,2.029,2.029,0,0,1-.467-.68,2.131,2.131,0,0,1-.162-.852A2.16,2.16,0,0,1,41,51.369a2.029,2.029,0,0,1,.467-.68,2.152,2.152,0,0,1,.69-.457,2.456,2.456,0,0,1,1.755,0,2.169,2.169,0,0,1,.538.325l-.426.71a1.238,1.238,0,0,0-.436-.254,1.4,1.4,0,0,0-.558-.1,1.257,1.257,0,0,0-.528-.03Z" transform="translate(0.036 0.472)" fill-rule="evenodd"/>
      <path id="Path_4957" data-name="Path 4957" d="M58.575,53.781v.071h-.03Zm.081-.081a.162.162,0,0,1,.112,0,.1.1,0,0,1,0,.091.091.091,0,0,1,0,.071h-.081l.122.132h-.132l-.1-.132v.132h-.1v-.365Zm0,.477a.2.2,0,0,0,.112,0,.335.335,0,0,0,.1-.061l.061-.1a.361.361,0,0,0,0-.112.5.5,0,0,0,0-.122l-.061-.091-.1-.071h-.233l-.1.071-.061.091a.507.507,0,0,0,0,.122.367.367,0,0,0,0,.112l.061.1a.338.338,0,0,0,.1.061.234.234,0,0,0,.1,0Zm0-.71a.454.454,0,0,1,.162,0,.423.423,0,0,1,.142.091.413.413,0,0,1,.081.132.292.292,0,0,1,0,.162.324.324,0,0,1-.03.162.579.579,0,0,1-.081.132l-.142.091a.46.46,0,0,1-.162,0,.479.479,0,0,1-.172,0l-.142-.091-.081-.132a.46.46,0,0,1,0-.162.416.416,0,0,1,0-.162.744.744,0,0,1,.091-.132.424.424,0,0,1,.142-.091.474.474,0,0,1,.172,0Z" transform="translate(0.704 0.546)" fill-rule="evenodd"/>
      <path id="Path_4958" data-name="Path 4958" d="M29.115,31.41a15.369,15.369,0,0,1,5.844-12.074,15.41,15.41,0,1,0,0,24.154,15.369,15.369,0,0,1-5.844-12.083Z" fill="#e20c16" fill-rule="evenodd"/>
      <path id="Path_4959" data-name="Path 4959" d="M28.84,31.362a15.368,15.368,0,0,0,5.844,12.086,15.388,15.388,0,0,0,0-24.154A15.368,15.368,0,0,0,28.84,31.367Z" transform="translate(0.275 0.048)" fill="#ea6008" fill-rule="evenodd"/>
      <path id="Path_4960" data-name="Path 4960" d="M59.146,39.416V39.01l-.132.345h-.142l-.132-.345v.4h-.132v-.579H58.8l.142.366.142-.366h.193v.581Zm-1.015,0V39.01H58v-.122h.507v.122h-.183v.458Z" transform="translate(0.701 0.333)" fill="#f59e00" fill-rule="evenodd"/>
      <path id="Path_4961" data-name="Path 4961" d="M44.137,16.01a15.352,15.352,0,0,0-9.557,3.328,15.388,15.388,0,0,1,0,24.154A15.4,15.4,0,1,0,44.137,16.01Z" transform="translate(0.359)" fill="#f59e00" fill-rule="evenodd"/>
    </g>
    <g id="mir" transform="translate(3013 -22641)">
      <path id="Path_4962" data-name="Path 4962" d="M64.136,25H48.857c.822,5.092,5.75,9.857,11.172,9.857H72.186a5.591,5.591,0,0,0,.164-1.642A8.135,8.135,0,0,0,64.136,25Z" transform="translate(7.328)" fill-rule="evenodd" fill="url(#linear-gradient)"/>
      <path id="Path_4963" data-name="Path 4963" d="M50,34.286v12.32h7.392v-6.57h6.572a8.134,8.134,0,0,0,7.722-5.75Z" transform="translate(7.499 1.393)" fill="#4db45f" fill-rule="evenodd"/>
      <path id="Path_4964" data-name="Path 4964" d="M27.143,25V48h6.572a2.918,2.918,0,0,0,2.464-1.642l5.75-11.5h.822V48h7.392V25H43.571a3.42,3.42,0,0,0-2.464,1.642l-5.75,11.5h-.822V25Z" transform="translate(4.071)" fill="#4db45f" fill-rule="evenodd"/>
      <path id="Path_4965" data-name="Path 4965" d="M0,48V25H7.392s2.136,0,3.286,3.286c2.958,8.707,3.286,9.857,3.286,9.857s.658-2.136,3.286-9.857C18.4,25,20.536,25,20.536,25h7.392V48H20.536V35.678h-.822L15.607,48H12.322L8.214,35.678H7.392V48Z" fill="#4db45f" fill-rule="evenodd"/>
    </g>
    <g id="g4158" transform="translate(2837.835 -22722.047)">
      <path id="polygon9" d="M439.515,133.959h-6.008l3.757-23.236h6.006Z" transform="translate(-326.214 -5.258)" fill="#00579f"/>
      <path id="path11" d="M583.2,106.036a14.8,14.8,0,0,0-5.388-.989c-5.932,0-10.109,3.164-10.136,7.686-.049,3.337,2.991,5.19,5.265,6.3,2.324,1.137,3.114,1.879,3.114,2.892-.024,1.557-1.877,2.273-3.608,2.273a11.957,11.957,0,0,1-5.637-1.236l-.791-.371-.841,5.216a18.284,18.284,0,0,0,6.7,1.236c6.3,0,10.406-3.114,10.455-7.934.024-2.644-1.582-4.671-5.042-6.327-2.1-1.063-3.388-1.779-3.388-2.868.025-.988,1.091-2,3.46-2a10.206,10.206,0,0,1,4.473.889l.545.247.817-5.018Z" transform="translate(-448.122)" fill="#00579f"/>
      <path id="path13" d="M799.816,125.731c.494-1.334,2.4-6.5,2.4-6.5-.025.049.494-1.359.791-2.224l.42,2s1.138,5.564,1.384,6.722Zm7.418-15h-4.649a2.964,2.964,0,0,0-3.14,1.928l-8.922,21.3h6.3l1.261-3.485H805.8c.172.816.717,3.485.717,3.485h5.564l-4.846-23.236h0Z" transform="translate(-656.755 -5.26)" fill="#00579f"/>
      <path id="path15" d="M180.667,110.727l-5.883,15.842-.643-3.213a17.782,17.782,0,0,0-8.3-9.738l5.388,20.316h6.354l9.442-23.208h-6.352Z" transform="translate(-78.392 -5.258)" fill="#00579f"/>
      <path id="path17" d="M90.93,110.728H81.264l-.1.469c7.539,1.928,12.532,6.575,14.584,12.161l-2.1-10.678a2.486,2.486,0,0,0-2.719-1.953Z" transform="translate(0 -5.259)" fill="#faa61a"/>
    </g>
  </g>
</svg>
